<svg xmlns="http://www.w3.org/2000/svg" viewBox="290.3 13.29 619.78 620.75">
<path style="fill:#393939; stroke:none;" d="M589 14.4244C560.748 18.1339 533.591 19.4515 506 28.0255C430.404 51.5178 363.976 107.519 326.309 177C241.928 332.648 311.754 536.404 474 608.138C524.706 630.557 583.111 638.458 638 631.714C790.086 613.026 906.249 482.53 909.985 330C913.431 189.346 815.162 57.9253 678 23.6265C650.531 16.7577 617.324 10.7054 589 14.4244z"/>
<path style="fill:#595959; stroke:none;" d="M476 203L476 204L488 204L476 203M466 204L466 205L470 205L466 204z"/>
<path style="fill:#a6a6a6; stroke:none;" d="M470 204L470 205L477 205L470 204z"/>
<path style="fill:#fefefe; stroke:none;" d="M581 370L556 370C553.081 370 548.198 369.111 545.728 371.028C542.194 373.771 540.875 382.096 538.251 386C531.476 396.081 521.368 403.434 510 407.564C479.708 418.569 441.292 407.697 424.066 380C415.383 366.04 413.002 349.163 413 333L585 333C585 289.724 573.859 244.854 536 219.029C522.702 209.957 506.932 205.684 491 204.961C476.745 204.313 462.84 204.647 449 209.029C403.211 223.526 376.076 268.495 374.039 315C371.877 364.383 391.535 418.291 441 436.771C491.514 455.642 578.145 435.504 581 370z"/>
<path style="fill:#a6a6a6; stroke:none;" d="M486 204L486 205L495 205L486 204z"/>
<path style="fill:#595959; stroke:none;" d="M495 204L495 205L498 205L495 204M601 204L603 207L601 204z"/>
<path style="fill:#a6a6a6; stroke:none;" d="M602 204L602 205L652 205C639.11 199.591 616.049 204 602 204z"/>
<path style="fill:#595959; stroke:none;" d="M768 204L767 206L768 204z"/>
<path style="fill:#a6a6a6; stroke:none;" d="M769 204L769 205L816 205C803.823 199.89 782.265 204 769 204z"/>
<path style="fill:#595959; stroke:none;" d="M459 205L459 206L462 206L459 205z"/>
<path style="fill:#a6a6a6; stroke:none;" d="M462 205L462 206L465 206L462 205M499 205L499 206L502 206L499 205z"/>
<path style="fill:#595959; stroke:none;" d="M502 205L502 206L505 206L502 205z"/>
<path style="fill:#fefefe; stroke:none;" d="M602 205C619.928 233.788 642.328 260.818 662.626 288C667.828 294.967 672.957 301.999 678.116 309C679.886 311.402 683.723 315.179 683.351 318.424C682.257 327.983 667.284 342.177 661.709 350L616.709 413C609.95 422.485 599.678 432.906 596 444L628 444C632.047 444 638.072 445.092 641.7 442.972C649.984 438.132 656.408 422.888 661.667 415C676.793 392.311 696.339 369.651 708 345L710 345C722.105 370.589 742.591 394.43 758.333 418C762.702 424.54 769.836 440.313 777.184 443.397C781.309 445.127 787.599 444 792 444L825 444C820.774 432.854 810.898 422.691 804 413C788.78 391.618 773.427 370.334 758.14 349C752.401 340.99 746.724 332.937 740.884 325C738.928 322.341 734.432 317.954 734.582 314.424C734.708 311.452 738.193 308.24 739.873 306L755.627 285C775.136 258.988 798.911 233.237 815 205L783 205L769.325 205.603L752.709 227L710 288L708 288C697.958 266.771 680.701 247.542 667.667 228C663.671 222.01 657.604 208.452 650.816 205.603C646.691 203.873 640.401 205 636 205L602 205z"/>
<path style="fill:#595959; stroke:none;" d="M652 205L653 206L652 205M815 205L816 206L815 205M455.667 206.333L456.333 206.667L455.667 206.333z"/>
<path style="fill:#a6a6a6; stroke:none;" d="M457 206L457 207L460 207L457 206M505.667 206.333L506.333 206.667L505.667 206.333z"/>
<path style="fill:#595959; stroke:none;" d="M507.667 206.333L508.333 206.667L507.667 206.333M653 206L654 207L653 206z"/>
<path style="fill:#a6a6a6; stroke:none;" d="M767 206L768 207L767 206M814 206L815 207L814 206z"/>
<path style="fill:#595959; stroke:none;" d="M451.667 207.333L452.333 207.667L451.667 207.333z"/>
<path style="fill:#a6a6a6; stroke:none;" d="M453.667 207.333L454.333 207.667L453.667 207.333M509.667 207.333L510.333 207.667L509.667 207.333z"/>
<path style="fill:#595959; stroke:none;" d="M511.667 207.333L512.333 207.667L511.667 207.333z"/>
<path style="fill:#a6a6a6; stroke:none;" d="M603 207L605 209L603 207M653 207L654 208L653 207M766 207L767 208L766 207M813 207L814 208L813 207z"/>
<path style="fill:#595959; stroke:none;" d="M448.667 208.333L449.333 208.667L448.667 208.333z"/>
<path style="fill:#a6a6a6; stroke:none;" d="M450 208L451 209L450 208M513.667 208.333L514.333 208.667L513.667 208.333z"/>
<path style="fill:#595959; stroke:none;" d="M515 208L516 209L515 208M603 208L604 209L603 208z"/>
<path style="fill:#a6a6a6; stroke:none;" d="M654 208L655 209L654 208z"/>
<path style="fill:#595959; stroke:none;" d="M765 208L764 210L765 208M813 208L814 209L813 208M445.667 209.333L446.333 209.667L445.667 209.333z"/>
<path style="fill:#a6a6a6; stroke:none;" d="M447 209L448 210L447 209M516.667 209.333L517.333 209.667L516.667 209.333z"/>
<path style="fill:#595959; stroke:none;" d="M518 209L519 210L518 209M604 209L605 210L604 209M655 209L656 210L655 209z"/>
<path style="fill:#a6a6a6; stroke:none;" d="M765 209L766 210L765 209z"/>
<path style="fill:#595959; stroke:none;" d="M812 209L813 210L812 209M442.667 210.333L443.333 210.667L442.667 210.333z"/>
<path style="fill:#a6a6a6; stroke:none;" d="M444 210L445 211L444 210M519 210L520 211L519 210z"/>
<path style="fill:#595959; stroke:none;" d="M520.667 210.333L521.333 210.667L520.667 210.333z"/>
<path style="fill:#a6a6a6; stroke:none;" d="M605 210L606 211L605 210M655 210L656 211L655 210M764 210L765 211L764 210M811 210L812 211L811 210z"/>
<path style="fill:#595959; stroke:none;" d="M440 211L441 212L440 211z"/>
<path style="fill:#a6a6a6; stroke:none;" d="M441.667 211.333L442.333 211.667L441.667 211.333M522 211L523 212L522 211z"/>
<path style="fill:#595959; stroke:none;" d="M523 211L524 212L523 211z"/>
<path style="fill:#a6a6a6; stroke:none;" d="M606 211L608 213L606 211M656 211L657 212L656 211z"/>
<path style="fill:#595959; stroke:none;" d="M763 211L764 212L763 211z"/>
<path style="fill:#a6a6a6; stroke:none;" d="M810 211L811 212L810 211z"/>
<path style="fill:#595959; stroke:none;" d="M438 212L439 213L438 212z"/>
<path style="fill:#a6a6a6; stroke:none;" d="M439 212L440 213L439 212M524 212L525 213L524 212z"/>
<path style="fill:#595959; stroke:none;" d="M525 212L526 213L525 212M606 212L607 213L606 212M657 212L659 214L657 212M762 212L763 213L762 212M810 212L811 213L810 212M436 213L437 214L436 213z"/>
<path style="fill:#a6a6a6; stroke:none;" d="M437 213L438 214L437 213M526 213L527 214L526 213z"/>
<path style="fill:#595959; stroke:none;" d="M527 213L528 214L527 213M607 213L608 214L607 213z"/>
<path style="fill:#a6a6a6; stroke:none;" d="M657 213L658 214L657 213M762 213L763 214L762 213z"/>
<path style="fill:#595959; stroke:none;" d="M809 213L810 214L809 213M434 214L435 215L434 214z"/>
<path style="fill:#a6a6a6; stroke:none;" d="M435 214L436 215L435 214M528 214L529 215L528 214z"/>
<path style="fill:#595959; stroke:none;" d="M529 214L530 215L529 214z"/>
<path style="fill:#a6a6a6; stroke:none;" d="M608 214L609 215L608 214M658 214L659 215L658 214M761 214L762 215L761 214M808 214L809 215L808 214z"/>
<path style="fill:#595959; stroke:none;" d="M432 215L433 216L432 215z"/>
<path style="fill:#a6a6a6; stroke:none;" d="M433 215L434 216L433 215M530 215L531 216L530 215z"/>
<path style="fill:#595959; stroke:none;" d="M531 215L532 216L531 215z"/>
<path style="fill:#a6a6a6; stroke:none;" d="M609 215L610 216L609 215z"/>
<path style="fill:#595959; stroke:none;" d="M659 215L661 217L659 215M760 215L759 217L760 215z"/>
<path style="fill:#a6a6a6; stroke:none;" d="M807 215L808 216L807 215z"/>
<path style="fill:#595959; stroke:none;" d="M430 216L431 217L430 216z"/>
<path style="fill:#a6a6a6; stroke:none;" d="M431 216L432 217L431 216z"/>
<path style="fill:#595959; stroke:none;" d="M532 216L533 217L532 216M609 216L610 217L609 216z"/>
<path style="fill:#a6a6a6; stroke:none;" d="M659 216L660 217L659 216M760 216L761 217L760 216z"/>
<path style="fill:#595959; stroke:none;" d="M807 216L808 217L807 216M428 217L429 218L428 217z"/>
<path style="fill:#a6a6a6; stroke:none;" d="M429 217L430 218L429 217M533 217L534 218L533 217z"/>
<path style="fill:#595959; stroke:none;" d="M534 217L535 218L534 217M610 217L611 218L610 217z"/>
<path style="fill:#a6a6a6; stroke:none;" d="M660 217L661 218L660 217M759 217L760 218L759 217z"/>
<path style="fill:#595959; stroke:none;" d="M806 217L807 218L806 217M426 218L425 220L426 218z"/>
<path style="fill:#a6a6a6; stroke:none;" d="M427 218L428 219L427 218z"/>
<path style="fill:#595959; stroke:none;" d="M535 218L536 219L535 218z"/>
<path style="fill:#a6a6a6; stroke:none;" d="M611 218L612 219L611 218z"/>
<path style="fill:#595959; stroke:none;" d="M661 218L662 219L661 218M758 218L759 219L758 218z"/>
<path style="fill:#a6a6a6; stroke:none;" d="M805 218L806 219L805 218M426 219L427 220L426 219M536 219L537 220L536 219z"/>
<path style="fill:#595959; stroke:none;" d="M537 219L538 220L537 219z"/>
<path style="fill:#a6a6a6; stroke:none;" d="M612 219L613 220L612 219z"/>
<path style="fill:#595959; stroke:none;" d="M662 219L663 220L662 219M757 219L758 220L757 219z"/>
<path style="fill:#a6a6a6; stroke:none;" d="M804 219L805 220L804 219z"/>
<path style="fill:#595959; stroke:none;" d="M423 220L424 221L423 220z"/>
<path style="fill:#a6a6a6; stroke:none;" d="M424 220L425 221L424 220z"/>
<path style="fill:#595959; stroke:none;" d="M538 220L539 221L538 220M612 220L613 221L612 220z"/>
<path style="fill:#a6a6a6; stroke:none;" d="M662 220L663 221L662 220M757 220L758 221L757 220z"/>
<path style="fill:#595959; stroke:none;" d="M804 220L805 221L804 220M422 221L423 222L422 221z"/>
<path style="fill:#a6a6a6; stroke:none;" d="M539 221L541 223L539 221z"/>
<path style="fill:#595959; stroke:none;" d="M540 221L541 222L540 221M613 221L614 222L613 221M663 221L664 222L663 221z"/>
<path style="fill:#a6a6a6; stroke:none;" d="M756 221L757 222L756 221z"/>
<path style="fill:#595959; stroke:none;" d="M803 221L804 222L803 221M420 222L419 224L420 222z"/>
<path style="fill:#a6a6a6; stroke:none;" d="M421 222L422 223L421 222z"/>
<path style="fill:#595959; stroke:none;" d="M541 222L542 223L541 222z"/>
<path style="fill:#a6a6a6; stroke:none;" d="M614 222L616 224L614 222z"/>
<path style="fill:#595959; stroke:none;" d="M664 222L665 223L664 222M755 222L754 224L755 222z"/>
<path style="fill:#a6a6a6; stroke:none;" d="M802 222L803 223L802 222M420 223L421 224L420 223z"/>
<path style="fill:#595959; stroke:none;" d="M542 223L543 224L542 223M614 223L615 224L614 223z"/>
<path style="fill:#a6a6a6; stroke:none;" d="M664 223L665 224L664 223M755 223L756 224L755 223M801 223L802 224L801 223M418 224L419 225L418 224M543 224L544 225L543 224z"/>
<path style="fill:#595959; stroke:none;" d="M615 224L616 225L615 224M665 224L666 225L665 224z"/>
<path style="fill:#a6a6a6; stroke:none;" d="M754 224L755 225L754 224z"/>
<path style="fill:#595959; stroke:none;" d="M801 224L802 225L801 224M416 225L415 227L416 225z"/>
<path style="fill:#a6a6a6; stroke:none;" d="M417 225L418 226L417 225M544 225L547 228L544 225z"/>
<path style="fill:#595959; stroke:none;" d="M545 225L546 226L545 225z"/>
<path style="fill:#a6a6a6; stroke:none;" d="M616 225L617 226L616 225z"/>
<path style="fill:#595959; stroke:none;" d="M666 225L667 226L666 225M753 225L754 226L753 225M800 225L801 226L800 225z"/>
<path style="fill:#a6a6a6; stroke:none;" d="M416 226L417 227L416 226z"/>
<path style="fill:#595959; stroke:none;" d="M546 226L547 227L546 226z"/>
<path style="fill:#a6a6a6; stroke:none;" d="M617 226L619 228L617 226M666 226L667 227L666 226z"/>
<path style="fill:#595959; stroke:none;" d="M752 226L753 227L752 226z"/>
<path style="fill:#a6a6a6; stroke:none;" d="M799 226L800 227L799 226z"/>
<path style="fill:#595959; stroke:none;" d="M414 227L415 228L414 227M547 227L548 228L547 227M617 227L618 228L617 227z"/>
<path style="fill:#a6a6a6; stroke:none;" d="M667 227L668 228L667 227M752 227L753 228L752 227M798 227L799 228L798 227M413 228L414 229L413 228z"/>
<path style="fill:#595959; stroke:none;" d="M548 228L549 229L548 228M618 228L619 229L618 228M668 228L669 229L668 228z"/>
<path style="fill:#a6a6a6; stroke:none;" d="M751 228L752 229L751 228z"/>
<path style="fill:#595959; stroke:none;" d="M798 228L799 229L798 228z"/>
<path style="fill:#a6a6a6; stroke:none;" d="M412 229L413 230L412 229z"/>
<path style="fill:#595959; stroke:none;" d="M549 229L550 230L549 229z"/>
<path style="fill:#a6a6a6; stroke:none;" d="M619 229L620 230L619 229M668 229L669 230L668 229z"/>
<path style="fill:#595959; stroke:none;" d="M750 229L751 230L750 229M797 229L798 230L797 229M410 230L404 237L410 230z"/>
<path style="fill:#a6a6a6; stroke:none;" d="M411 230L412 231L411 230z"/>
<path style="fill:#595959; stroke:none;" d="M550 230L551 231L550 230z"/>
<path style="fill:#a6a6a6; stroke:none;" d="M620 230L621 231L620 230M669 230L670 231L669 230M750 230L751 231L750 230M796 230L797 231L796 230M410 231L411 232L410 231z"/>
<path style="fill:#595959; stroke:none;" d="M551 231L552 232L551 231M620 231L621 232L620 231M670 231L672 233L670 231z"/>
<path style="fill:#a6a6a6; stroke:none;" d="M749 231L750 232L749 231M795 231L796 232L795 231M409 232L410 233L409 232z"/>
<path style="fill:#595959; stroke:none;" d="M552 232L553 233L552 232M621 232L622 233L621 232z"/>
<path style="fill:#a6a6a6; stroke:none;" d="M670 232L671 233L670 232z"/>
<path style="fill:#595959; stroke:none;" d="M748 232L749 233L748 232M795 232L796 233L795 232z"/>
<path style="fill:#a6a6a6; stroke:none;" d="M408 233L409 234L408 233z"/>
<path style="fill:#595959; stroke:none;" d="M553 233L554 234L553 233z"/>
<path style="fill:#a6a6a6; stroke:none;" d="M622 233L624 235L622 233M671 233L672 234L671 233z"/>
<path style="fill:#595959; stroke:none;" d="M747 233L748 234L747 233M794 233L795 234L794 233z"/>
<path style="fill:#a6a6a6; stroke:none;" d="M407 234L408 235L407 234z"/>
<path style="fill:#595959; stroke:none;" d="M554 234L557 237L554 234M622 234L623 235L622 234M672 234L674 236L672 234z"/>
<path style="fill:#a6a6a6; stroke:none;" d="M747 234L748 235L747 234M793 234L794 235L793 234M406 235L407 236L406 235M554 235L555 236L554 235z"/>
<path style="fill:#595959; stroke:none;" d="M623 235L624 236L623 235z"/>
<path style="fill:#a6a6a6; stroke:none;" d="M672 235L673 236L672 235z"/>
<path style="fill:#595959; stroke:none;" d="M746 235L747 236L746 235z"/>
<path style="fill:#a6a6a6; stroke:none;" d="M792 235L793 236L792 235M405 236L406 237L405 236M555 236L556 237L555 236z"/>
<path style="fill:#595959; stroke:none;" d="M624 236L625 237L624 236z"/>
<path style="fill:#a6a6a6; stroke:none;" d="M673 236L674 237L673 236z"/>
<path style="fill:#595959; stroke:none;" d="M745 236L744 238L745 236M792 236L793 237L792 236z"/>
<path style="fill:#a6a6a6; stroke:none;" d="M404 237L405 238L404 237M470 237L470 238L475 238L470 237z"/>
<path style="fill:#595959; stroke:none;" d="M475 237L475 238L484 238L475 237z"/>
<path style="fill:#a6a6a6; stroke:none;" d="M484 237L484 238L488 238L484 237M556 237L557 238L556 237M625 237L627 239L625 237z"/>
<path style="fill:#595959; stroke:none;" d="M674 237L675 238L674 237z"/>
<path style="fill:#a6a6a6; stroke:none;" d="M745 237L746 238L745 237z"/>
<path style="fill:#595959; stroke:none;" d="M791 237L792 238L791 237z"/>
<path style="fill:#a6a6a6; stroke:none;" d="M403 238L404 239L403 238M464.667 238.333L465.333 238.667L464.667 238.333z"/>
<path style="fill:#595959; stroke:none;" d="M466 238L466 239L469 239L466 238z"/>
<path style="fill:#393939; stroke:none;" d="M545 302C542.885 252.729 486.779 219.909 444 247.548C430.393 256.339 420.992 270.431 416.884 286C415.994 289.374 412.93 297.194 415.117 300.397C416.632 302.614 420.719 301.995 423 302L447 302L545 302z"/>
<path style="fill:#595959; stroke:none;" d="M489 238L489 239L492 239L489 238z"/>
<path style="fill:#a6a6a6; stroke:none;" d="M492 238L492 239L495 239L492 238M557 238L558 239L557 238z"/>
<path style="fill:#595959; stroke:none;" d="M625 238L626 239L625 238M675 238L676 239L675 238z"/>
<path style="fill:#a6a6a6; stroke:none;" d="M744 238L745 239L744 238M790 238L791 239L790 238M402 239L403 240L402 239M460.667 239.333L461.333 239.667L460.667 239.333z"/>
<path style="fill:#595959; stroke:none;" d="M462.667 239.333L463.333 239.667L462.667 239.333M494 239L494 240L497 240L494 239z"/>
<path style="fill:#a6a6a6; stroke:none;" d="M497 239L498 240L497 239z"/>
<path style="fill:#595959; stroke:none;" d="M558 239L559 240L558 239M626 239L627 240L626 239z"/>
<path style="fill:#a6a6a6; stroke:none;" d="M675 239L676 240L675 239z"/>
<path style="fill:#595959; stroke:none;" d="M743 239L742 241L743 239z"/>
<path style="fill:#a6a6a6; stroke:none;" d="M789 239L790 240L789 239z"/>
<path style="fill:#595959; stroke:none;" d="M401 240L402 241L401 240z"/>
<path style="fill:#a6a6a6; stroke:none;" d="M457 240L458 241L457 240z"/>
<path style="fill:#595959; stroke:none;" d="M458.667 240.333L459.333 240.667L458.667 240.333M498.667 240.333L499.333 240.667L498.667 240.333z"/>
<path style="fill:#a6a6a6; stroke:none;" d="M500.667 240.333L501.333 240.667L500.667 240.333z"/>
<path style="fill:#595959; stroke:none;" d="M559 240L561 242L559 240M627 240L628 241L627 240M676 240L677 241L676 240z"/>
<path style="fill:#a6a6a6; stroke:none;" d="M743 240L744 241L743 240z"/>
<path style="fill:#595959; stroke:none;" d="M789 240L790 241L789 240M400 241L399 243L400 241z"/>
<path style="fill:#a6a6a6; stroke:none;" d="M454 241L455 242L454 241z"/>
<path style="fill:#595959; stroke:none;" d="M455.667 241.333L456.333 241.667L455.667 241.333M501.667 241.333L502.333 241.667L501.667 241.333z"/>
<path style="fill:#a6a6a6; stroke:none;" d="M503 241L504 242L503 241M559 241L560 242L559 241M628 241L630 243L628 241z"/>
<path style="fill:#595959; stroke:none;" d="M677 241L678 242L677 241z"/>
<path style="fill:#a6a6a6; stroke:none;" d="M742 241L743 242L742 241z"/>
<path style="fill:#595959; stroke:none;" d="M788 241L789 242L788 241z"/>
<path style="fill:#a6a6a6; stroke:none;" d="M400 242L401 243L400 242M452 242L453 243L452 242z"/>
<path style="fill:#595959; stroke:none;" d="M453 242L454 243L453 242M504 242L505 243L504 242z"/>
<path style="fill:#a6a6a6; stroke:none;" d="M505 242L506 243L505 242M560 242L561 243L560 242z"/>
<path style="fill:#595959; stroke:none;" d="M628 242L629 243L628 242z"/>
<path style="fill:#a6a6a6; stroke:none;" d="M677 242L678 243L677 242z"/>
<path style="fill:#595959; stroke:none;" d="M741 242L742 243L741 242z"/>
<path style="fill:#a6a6a6; stroke:none;" d="M787 242L786 244L787 242M399 243L400 244L399 243M450 243L451 244L450 243z"/>
<path style="fill:#595959; stroke:none;" d="M451 243L452 244L451 243M506 243L506 244L511 246L511 245L506 243z"/>
<path style="fill:#a6a6a6; stroke:none;" d="M508 243L509 244L508 243z"/>
<path style="fill:#595959; stroke:none;" d="M561 243L562 244L561 243M629 243L630 244L629 243z"/>
<path style="fill:#a6a6a6; stroke:none;" d="M678 243L679 244L678 243z"/>
<path style="fill:#595959; stroke:none;" d="M740 243L741 244L740 243M787 243L788 244L787 243z"/>
<path style="fill:#a6a6a6; stroke:none;" d="M398 244L399 245L398 244M448 244L449 245L448 244z"/>
<path style="fill:#595959; stroke:none;" d="M449 244L450 245L449 244z"/>
<path style="fill:#a6a6a6; stroke:none;" d="M510 244L511 245L510 244z"/>
<path style="fill:#595959; stroke:none;" d="M562 244L563 245L562 244z"/>
<path style="fill:#a6a6a6; stroke:none;" d="M630 244L631 245L630 244z"/>
<path style="fill:#595959; stroke:none;" d="M679 244L680 245L679 244z"/>
<path style="fill:#a6a6a6; stroke:none;" d="M740 244L741 245L740 244z"/>
<path style="fill:#595959; stroke:none;" d="M786 244L787 245L786 244M397 245L398 246L397 245z"/>
<path style="fill:#a6a6a6; stroke:none;" d="M446 245L447 246L446 245z"/>
<path style="fill:#595959; stroke:none;" d="M447 245L448 246L447 245z"/>
<path style="fill:#a6a6a6; stroke:none;" d="M511 245L512 246L511 245M562 245L563 246L562 245M631 245L633 247L631 245M679 245L680 246L679 245M739 245L740 246L739 245z"/>
<path style="fill:#595959; stroke:none;" d="M785 245L786 246L785 245M396 246L397 247L396 246z"/>
<path style="fill:#a6a6a6; stroke:none;" d="M444 246L445 247L444 246z"/>
<path style="fill:#595959; stroke:none;" d="M445 246L446 247L445 246M512 246L513 247L512 246z"/>
<path style="fill:#a6a6a6; stroke:none;" d="M513 246L514 247L513 246M563 246L564 247L563 246z"/>
<path style="fill:#595959; stroke:none;" d="M631 246L632 247L631 246z"/>
<path style="fill:#a6a6a6; stroke:none;" d="M680 246L681 247L680 246z"/>
<path style="fill:#595959; stroke:none;" d="M738 246L737 248L738 246z"/>
<path style="fill:#a6a6a6; stroke:none;" d="M784 246L783 248L784 246M396 247L397 248L396 247M443 247L444 248L443 247z"/>
<path style="fill:#595959; stroke:none;" d="M514 247L516 249L514 247z"/>
<path style="fill:#a6a6a6; stroke:none;" d="M515 247L516 248L515 247z"/>
<path style="fill:#595959; stroke:none;" d="M564 247L565 248L564 247M632 247L633 248L632 247M681 247L683 249L681 247z"/>
<path style="fill:#a6a6a6; stroke:none;" d="M738 247L739 248L738 247z"/>
<path style="fill:#595959; stroke:none;" d="M784 247L785 248L784 247z"/>
<path style="fill:#a6a6a6; stroke:none;" d="M395 248L396 249L395 248M441 248L440 250L441 248z"/>
<path style="fill:#595959; stroke:none;" d="M442 248L443 249L442 248z"/>
<path style="fill:#a6a6a6; stroke:none;" d="M516 248L517 249L516 248M564 248L565 249L564 248M633 248L634 249L633 248M681 248L682 249L681 248M737 248L738 249L737 248z"/>
<path style="fill:#595959; stroke:none;" d="M783 248L784 249L783 248M394 249L395 250L394 249M441 249L442 250L441 249M517 249L519 251L517 249z"/>
<path style="fill:#a6a6a6; stroke:none;" d="M518 249L519 250L518 249z"/>
<path style="fill:#595959; stroke:none;" d="M565 249L567 251L565 249z"/>
<path style="fill:#a6a6a6; stroke:none;" d="M634 249L635 250L634 249M682 249L683 250L682 249z"/>
<path style="fill:#595959; stroke:none;" d="M736 249L737 250L736 249M782 249L783 250L782 249z"/>
<path style="fill:#a6a6a6; stroke:none;" d="M394 250L395 251L394 250z"/>
<path style="fill:#595959; stroke:none;" d="M439 250L440 251L439 250z"/>
<path style="fill:#a6a6a6; stroke:none;" d="M519 250L520 251L519 250M565 250L566 251L565 250z"/>
<path style="fill:#595959; stroke:none;" d="M634 250L635 251L634 250M683 250L685 252L683 250M735 250L736 251L735 250z"/>
<path style="fill:#a6a6a6; stroke:none;" d="M781 250L780 252L781 250M393 251L394 252L393 251M437 251L435 254L437 251z"/>
<path style="fill:#595959; stroke:none;" d="M438 251L439 252L438 251z"/>
<path style="fill:#a6a6a6; stroke:none;" d="M520 251L521 252L520 251M566 251L567 252L566 251z"/>
<path style="fill:#595959; stroke:none;" d="M635 251L636 252L635 251z"/>
<path style="fill:#a6a6a6; stroke:none;" d="M683 251L684 252L683 251M735 251L736 252L735 251z"/>
<path style="fill:#595959; stroke:none;" d="M781 251L782 252L781 251M392 252L393 253L392 252M437 252L438 253L437 252M521 252L522 253L521 252M567 252L568 253L567 252z"/>
<path style="fill:#a6a6a6; stroke:none;" d="M636 252L638 254L636 252M684 252L685 253L684 252M734 252L735 253L734 252z"/>
<path style="fill:#595959; stroke:none;" d="M780 252L781 253L780 252z"/>
<path style="fill:#a6a6a6; stroke:none;" d="M392 253L393 254L392 253z"/>
<path style="fill:#595959; stroke:none;" d="M436 253L437 254L436 253M522 253L529 260L522 253z"/>
<path style="fill:#a6a6a6; stroke:none;" d="M523 253L524 254L523 253M567 253L568 254L567 253z"/>
<path style="fill:#595959; stroke:none;" d="M636 253L637 254L636 253M685 253L687 255L685 253M733 253L732 255L733 253M779 253L780 254L779 253M391 254L390 256L391 254z"/>
<path style="fill:#a6a6a6; stroke:none;" d="M434 254L435 255L434 254M524 254L525 255L524 254z"/>
<path style="fill:#595959; stroke:none;" d="M568 254L569 255L568 254M637 254L638 255L637 254z"/>
<path style="fill:#a6a6a6; stroke:none;" d="M685 254L686 255L685 254M733 254L734 255L733 254M778 254L777 256L778 254M391 255L392 256L391 255M433 255L434 256L433 255M525 255L526 256L525 255M568 255L569 256L568 255z"/>
<path style="fill:#595959; stroke:none;" d="M638 255L639 256L638 255z"/>
<path style="fill:#a6a6a6; stroke:none;" d="M686 255L687 256L686 255M732 255L733 256L732 255z"/>
<path style="fill:#595959; stroke:none;" d="M778 255L779 256L778 255z"/>
<path style="fill:#a6a6a6; stroke:none;" d="M390 256L391 257L390 256M432 256L433 257L432 256M526 256L527 257L526 256z"/>
<path style="fill:#595959; stroke:none;" d="M569 256L570 259L571 259L569 256z"/>
<path style="fill:#a6a6a6; stroke:none;" d="M639 256L641 258L639 256z"/>
<path style="fill:#595959; stroke:none;" d="M687 256L688 257L687 256M731 256L732 257L731 256M777 256L778 257L777 256M389 257L390 258L389 257z"/>
<path style="fill:#a6a6a6; stroke:none;" d="M431 257L430 259L431 257M527 257L528 258L527 257M569 257L570 258L569 257z"/>
<path style="fill:#595959; stroke:none;" d="M639 257L640 258L639 257M688 257L689 258L688 257M730 257L731 258L730 257M776 257L777 258L776 257z"/>
<path style="fill:#a6a6a6; stroke:none;" d="M389 258L390 259L389 258z"/>
<path style="fill:#595959; stroke:none;" d="M431 258L432 259L431 258z"/>
<path style="fill:#a6a6a6; stroke:none;" d="M528 258L529 259L528 258z"/>
<path style="fill:#595959; stroke:none;" d="M640 258L641 259L640 258z"/>
<path style="fill:#a6a6a6; stroke:none;" d="M688 258L689 259L688 258M730 258L731 259L730 258M775 258L774 260L775 258z"/>
<path style="fill:#595959; stroke:none;" d="M388 259L389 260L388 259M430 259L431 260L430 259z"/>
<path style="fill:#a6a6a6; stroke:none;" d="M570 259L571 260L570 259M641 259L642 260L641 259z"/>
<path style="fill:#595959; stroke:none;" d="M689 259L690 260L689 259z"/>
<path style="fill:#a6a6a6; stroke:none;" d="M729 259L730 260L729 259z"/>
<path style="fill:#595959; stroke:none;" d="M775 259L776 260L775 259z"/>
<path style="fill:#a6a6a6; stroke:none;" d="M388 260L389 261L388 260z"/>
<path style="fill:#595959; stroke:none;" d="M429 260L430 261L429 260M529 260L530 261L529 260M571 260L572 263L573 263L571 260z"/>
<path style="fill:#a6a6a6; stroke:none;" d="M642 260L644 262L642 260z"/>
<path style="fill:#595959; stroke:none;" d="M690 260L691 261L690 260M728 260L727 262L728 260M774 260L775 261L774 260M387 261L388 262L387 261M428 261L429 262L428 261z"/>
<path style="fill:#a6a6a6; stroke:none;" d="M530 261L531 262L530 261M571 261L572 262L571 261z"/>
<path style="fill:#595959; stroke:none;" d="M642 261L643 262L642 261z"/>
<path style="fill:#a6a6a6; stroke:none;" d="M690 261L691 262L690 261M728 261L729 262L728 261z"/>
<path style="fill:#595959; stroke:none;" d="M773 261L774 262L773 261z"/>
<path style="fill:#a6a6a6; stroke:none;" d="M387 262L388 263L387 262M427 262L426 264L427 262M531 262L533 264L531 262z"/>
<path style="fill:#595959; stroke:none;" d="M643 262L644 263L643 262z"/>
<path style="fill:#a6a6a6; stroke:none;" d="M691 262L692 263L691 262M727 262L728 263L727 262M772 262L771 264L772 262z"/>
<path style="fill:#595959; stroke:none;" d="M386 263L387 264L386 263M427 263L428 264L427 263M531 263L532 264L531 263z"/>
<path style="fill:#a6a6a6; stroke:none;" d="M572 263L573 264L572 263M644 263L645 264L644 263z"/>
<path style="fill:#595959; stroke:none;" d="M692 263L693 264L692 263M726 263L727 264L726 263M772 263L773 264L772 263z"/>
<path style="fill:#a6a6a6; stroke:none;" d="M386 264L387 265L386 264z"/>
<path style="fill:#595959; stroke:none;" d="M426 264L427 265L426 264M532 264L533 265L532 264M573 264L574 265L573 264z"/>
<path style="fill:#a6a6a6; stroke:none;" d="M645 264L646 265L645 264M692 264L693 265L692 264z"/>
<path style="fill:#595959; stroke:none;" d="M725 264L726 265L725 264M771 264L772 265L771 264M385 265L386 266L385 265z"/>
<path style="fill:#a6a6a6; stroke:none;" d="M425 265L424 267L425 265M533 265L535 267L533 265M573 265L574 266L573 265z"/>
<path style="fill:#595959; stroke:none;" d="M645 265L646 266L645 265z"/>
<path style="fill:#a6a6a6; stroke:none;" d="M693 265L694 266L693 265M725 265L726 266L725 265z"/>
<path style="fill:#595959; stroke:none;" d="M770 265L771 266L770 265z"/>
<path style="fill:#a6a6a6; stroke:none;" d="M385 266L386 267L385 266z"/>
<path style="fill:#595959; stroke:none;" d="M425 266L426 267L425 266M533 266L534 267L533 266M574 266L575 267L574 266M646 266L647 267L646 266M694 266L696 268L694 266z"/>
<path style="fill:#a6a6a6; stroke:none;" d="M724 266L725 267L724 266M769 266L768 268L769 266z"/>
<path style="fill:#595959; stroke:none;" d="M384 267L385 268L384 267M424 267L425 268L424 267M534 267L535 268L534 267z"/>
<path style="fill:#a6a6a6; stroke:none;" d="M574 267L575 268L574 267M647 267L648 268L647 267M694 267L695 268L694 267z"/>
<path style="fill:#595959; stroke:none;" d="M723 267L722 269L723 267M769 267L770 268L769 267z"/>
<path style="fill:#a6a6a6; stroke:none;" d="M384 268L385 269L384 268M423 268L424 269L423 268M535 268L536 269L535 268z"/>
<path style="fill:#595959; stroke:none;" d="M575.333 268.667L575.667 269.333L575.333 268.667z"/>
<path style="fill:#a6a6a6; stroke:none;" d="M648 268L649 269L648 268M695 268L696 269L695 268M723 268L724 269L723 268z"/>
<path style="fill:#595959; stroke:none;" d="M768 268L769 269L768 268M383.333 269.667L383.667 270.333L383.333 269.667M423 269L424 270L423 269M535 269L536 270L535 269M648 269L649 270L648 269M696 269L698 271L696 269z"/>
<path style="fill:#a6a6a6; stroke:none;" d="M722 269L723 270L722 269z"/>
<path style="fill:#595959; stroke:none;" d="M767 269L768 270L767 269z"/>
<path style="fill:#a6a6a6; stroke:none;" d="M422 270L423 271L422 270M536 270L537 271L536 270M575 270L576 271L575 270z"/>
<path style="fill:#595959; stroke:none;" d="M649 270L650 271L649 270z"/>
<path style="fill:#a6a6a6; stroke:none;" d="M696 270L697 271L696 270z"/>
<path style="fill:#595959; stroke:none;" d="M721 270L722 271L721 270z"/>
<path style="fill:#a6a6a6; stroke:none;" d="M766 270L765 272L766 270M383 271L384 272L383 271z"/>
<path style="fill:#595959; stroke:none;" d="M422 271L423 272L422 271M536 271L537 272L536 271M576 271L577 272L576 271z"/>
<path style="fill:#a6a6a6; stroke:none;" d="M650 271L652 273L650 271M697 271L698 272L697 271z"/>
<path style="fill:#595959; stroke:none;" d="M720 271L721 272L720 271M766 271L767 272L766 271M382 272L383 273L382 272z"/>
<path style="fill:#a6a6a6; stroke:none;" d="M421 272L422 273L421 272M537 272L538 273L537 272M576.333 272.667L576.667 273.333L576.333 272.667z"/>
<path style="fill:#595959; stroke:none;" d="M650 272L651 273L650 272M698 272L700 274L698 272z"/>
<path style="fill:#a6a6a6; stroke:none;" d="M720 272L721 273L720 272z"/>
<path style="fill:#595959; stroke:none;" d="M765 272L766 273L765 272z"/>
<path style="fill:#a6a6a6; stroke:none;" d="M382 273L383 274L382 273z"/>
<path style="fill:#595959; stroke:none;" d="M421 273L422 274L421 273M537 273L538 274L537 273M651 273L652 274L651 273z"/>
<path style="fill:#a6a6a6; stroke:none;" d="M698 273L699 274L698 273M719 273L720 274L719 273z"/>
<path style="fill:#595959; stroke:none;" d="M764 273L765 274L764 273M381.333 274.667L381.667 275.333L381.333 274.667z"/>
<path style="fill:#a6a6a6; stroke:none;" d="M420 274L421 275L420 274M538 274L539 275L538 274z"/>
<path style="fill:#595959; stroke:none;" d="M577 274L578 275L577 274z"/>
<path style="fill:#a6a6a6; stroke:none;" d="M652 274L653 275L652 274M699 274L700 275L699 274z"/>
<path style="fill:#595959; stroke:none;" d="M718 274L717 276L718 274z"/>
<path style="fill:#a6a6a6; stroke:none;" d="M763 274L762 276L763 274z"/>
<path style="fill:#595959; stroke:none;" d="M420 275L421 276L420 275M538 275L539 276L538 275z"/>
<path style="fill:#a6a6a6; stroke:none;" d="M577.333 275.667L577.667 276.333L577.333 275.667M653 275L655 277L653 275z"/>
<path style="fill:#595959; stroke:none;" d="M700 275L701 276L700 275z"/>
<path style="fill:#a6a6a6; stroke:none;" d="M718 275L719 276L718 275z"/>
<path style="fill:#595959; stroke:none;" d="M763 275L764 276L763 275z"/>
<path style="fill:#a6a6a6; stroke:none;" d="M381 276L382 277L381 276M419 276L420 277L419 276M539 276L540 277L539 276z"/>
<path style="fill:#595959; stroke:none;" d="M653 276L654 277L653 276M701 276L702 277L701 276z"/>
<path style="fill:#a6a6a6; stroke:none;" d="M717 276L718 277L717 276z"/>
<path style="fill:#595959; stroke:none;" d="M762 276L763 277L762 276M380 277L381 278L380 277M419 277L420 278L419 277M539 277L540 278L539 277M578 277L579 278L578 277M654 277L655 278L654 277z"/>
<path style="fill:#a6a6a6; stroke:none;" d="M701 277L702 278L701 277z"/>
<path style="fill:#595959; stroke:none;" d="M716 277L717 278L716 277M761 277L762 278L761 277z"/>
<path style="fill:#a6a6a6; stroke:none;" d="M380.333 278.667L380.667 279.333L380.333 278.667M418.333 278.667L418.667 279.333L418.333 278.667M540 278L541 279L540 278M578.333 278.667L578.667 279.333L578.333 278.667M655 278L656 279L655 278z"/>
<path style="fill:#595959; stroke:none;" d="M702 278L703 279L702 278M715 278L716 279L715 278z"/>
<path style="fill:#a6a6a6; stroke:none;" d="M760 278L759 280L760 278z"/>
<path style="fill:#595959; stroke:none;" d="M540.333 279.667L540.667 280.333L540.333 279.667z"/>
<path style="fill:#a6a6a6; stroke:none;" d="M656 279L657 280L656 279z"/>
<path style="fill:#595959; stroke:none;" d="M703 279L704 280L703 279z"/>
<path style="fill:#a6a6a6; stroke:none;" d="M715 279L716 280L715 279z"/>
<path style="fill:#595959; stroke:none;" d="M760 279L761 280L760 279M379.333 280.667L379.667 281.333L379.333 280.667M418 280L419 281L418 280M579.333 280.667L579.667 281.333L579.333 280.667M656 280L657 281L656 280z"/>
<path style="fill:#a6a6a6; stroke:none;" d="M703 280L704 281L703 280M714 280L715 281L714 280z"/>
<path style="fill:#595959; stroke:none;" d="M759 280L760 281L759 280z"/>
<path style="fill:#a6a6a6; stroke:none;" d="M417 281L418 282L417 281M541 281L542 282L541 281z"/>
<path style="fill:#595959; stroke:none;" d="M657 281L658 282L657 281z"/>
<path style="fill:#a6a6a6; stroke:none;" d="M704 281L705 282L704 281z"/>
<path style="fill:#595959; stroke:none;" d="M713 281L712 283L713 281M758 281L759 282L758 281z"/>
<path style="fill:#a6a6a6; stroke:none;" d="M379 282L380 283L379 282z"/>
<path style="fill:#595959; stroke:none;" d="M417.333 282.667L417.667 283.333L417.333 282.667M541.333 282.667L541.667 283.333L541.333 282.667z"/>
<path style="fill:#a6a6a6; stroke:none;" d="M579 282L580 283L579 282M658 282L659 283L658 282z"/>
<path style="fill:#595959; stroke:none;" d="M705 282L706 283L705 282z"/>
<path style="fill:#a6a6a6; stroke:none;" d="M713 282L714 283L713 282M757 282L756 284L757 282z"/>
<path style="fill:#595959; stroke:none;" d="M378.333 283.667L378.667 284.333L378.333 283.667M580.333 283.667L580.667 284.333L580.333 283.667z"/>
<path style="fill:#a6a6a6; stroke:none;" d="M659 283L660 284L659 283M705 283L706 284L705 283M712 283L713 284L712 283z"/>
<path style="fill:#595959; stroke:none;" d="M757 283L758 284L757 283z"/>
<path style="fill:#a6a6a6; stroke:none;" d="M416.333 284.667L416.667 285.333L416.333 284.667M542 284L543 285L542 284z"/>
<path style="fill:#595959; stroke:none;" d="M659 284L660 285L659 284z"/>
<path style="fill:#a6a6a6; stroke:none;" d="M706 284L707 285L706 284z"/>
<path style="fill:#595959; stroke:none;" d="M711 284L712 285L711 284M756 284L757 285L756 284z"/>
<path style="fill:#a6a6a6; stroke:none;" d="M378.333 285.667L378.667 286.333L378.333 285.667z"/>
<path style="fill:#595959; stroke:none;" d="M542.333 285.667L542.667 286.333L542.333 285.667z"/>
<path style="fill:#a6a6a6; stroke:none;" d="M580.333 285.667L580.667 286.333L580.333 285.667z"/>
<path style="fill:#595959; stroke:none;" d="M660 285L661 286L660 285M707 285L709 287L707 285M710 285L711 286L710 285M755 285L756 286L755 285M416.333 286.667L416.667 287.333L416.333 286.667z"/>
<path style="fill:#a6a6a6; stroke:none;" d="M661 286L663 288L661 286M707 286L708 287L707 286M710 286L711 287L710 286M754 286L753 288L754 286z"/>
<path style="fill:#595959; stroke:none;" d="M377.333 287.667L377.667 288.333L377.333 287.667z"/>
<path style="fill:#a6a6a6; stroke:none;" d="M543.333 287.667L543.667 288.333L543.333 287.667z"/>
<path style="fill:#595959; stroke:none;" d="M661 287L662 288L661 287z"/>
<path style="fill:#a6a6a6; stroke:none;" d="M708.667 287.333L709.333 287.667L708.667 287.333z"/>
<path style="fill:#595959; stroke:none;" d="M754 287L755 288L754 287z"/>
<path style="fill:#a6a6a6; stroke:none;" d="M415.333 288.667L415.667 289.333L415.333 288.667z"/>
<path style="fill:#595959; stroke:none;" d="M581.333 288.667L581.667 289.333L581.333 288.667M662 288L663 289L662 288M753 288L754 289L753 288z"/>
<path style="fill:#a6a6a6; stroke:none;" d="M377.333 289.667L377.667 290.333L377.333 289.667z"/>
<path style="fill:#595959; stroke:none;" d="M543.333 289.667L543.667 290.333L543.333 289.667M663 289L664 290L663 289z"/>
<path style="fill:#a6a6a6; stroke:none;" d="M752 289L753 290L752 289z"/>
<path style="fill:#595959; stroke:none;" d="M415.333 290.667L415.667 291.333L415.333 290.667z"/>
<path style="fill:#a6a6a6; stroke:none;" d="M581.333 290.667L581.667 291.333L581.333 290.667M664 290L666 292L664 290M751 290L750 292L751 290z"/>
<path style="fill:#595959; stroke:none;" d="M376.333 291.667L376.667 292.333L376.333 291.667z"/>
<path style="fill:#a6a6a6; stroke:none;" d="M544 291L544 294L545 294L544 291z"/>
<path style="fill:#595959; stroke:none;" d="M664 291L665 292L664 291M751 291L752 292L751 291z"/>
<path style="fill:#a6a6a6; stroke:none;" d="M414 292L414 295L415 295L414 292z"/>
<path style="fill:#595959; stroke:none;" d="M582 292L582 295L583 295L582 292M665 292L666 293L665 292M750 292L751 293L750 292z"/>
<path style="fill:#a6a6a6; stroke:none;" d="M376 293L376 296L377 296L376 293M666 293L667 294L666 293M749 293L750 294L749 293z"/>
<path style="fill:#595959; stroke:none;" d="M544 294L544 297L545 297L544 294z"/>
<path style="fill:#a6a6a6; stroke:none;" d="M667 294L668 295L667 294M748 294L747 296L748 294z"/>
<path style="fill:#595959; stroke:none;" d="M414 295L414 298L415 298L414 295z"/>
<path style="fill:#a6a6a6; stroke:none;" d="M582.333 295.667L582.667 296.333L582.333 295.667z"/>
<path style="fill:#595959; stroke:none;" d="M667 295L668 296L667 295M748 295L749 296L748 295M375 296L375 299L376 299L375 296M668 296L669 297L668 296M747 296L748 297L747 296z"/>
<path style="fill:#a6a6a6; stroke:none;" d="M545 297L545 302L546 302L545 297M669 297L670 298L669 297M746 297L747 298L746 297z"/>
<path style="fill:#595959; stroke:none;" d="M583.333 298.667L583.667 299.333L583.333 298.667z"/>
<path style="fill:#a6a6a6; stroke:none;" d="M670 298L671 299L670 298M745 298L744 300L745 298M375 299L375 302L376 302L375 299M413 299C415.517 306.584 438.006 303 445 303L545 303L545 302L448 302C438.825 302 419.941 305.626 413 299z"/>
<path style="fill:#595959; stroke:none;" d="M670 299L671 300L670 299M745 299L746 300L745 299z"/>
<path style="fill:#a6a6a6; stroke:none;" d="M583 300L583 303L584 303L583 300z"/>
<path style="fill:#595959; stroke:none;" d="M671 300L672 301L671 300M744 300L745 301L744 300M414 301L415 302L414 301z"/>
<path style="fill:#a6a6a6; stroke:none;" d="M672 301L674 303L672 301M743 301L744 302L743 301z"/>
<path style="fill:#595959; stroke:none;" d="M374 302L374 306L375 306L374 302M672 302L673 303L672 302z"/>
<path style="fill:#a6a6a6; stroke:none;" d="M742 302L741 304L742 302z"/>
<path style="fill:#595959; stroke:none;" d="M584 303L584 307L585 307L584 303M673 303L674 304L673 303M742 303L743 304L742 303M674 304L675 305L674 304M741 304L742 305L741 304z"/>
<path style="fill:#a6a6a6; stroke:none;" d="M675 305L677 307L675 305M740 305L741 306L740 305M374 306L374 311L375 311L374 306z"/>
<path style="fill:#595959; stroke:none;" d="M675 306L676 307L675 306z"/>
<path style="fill:#a6a6a6; stroke:none;" d="M739 306L738 308L739 306M584 307L584 311L585 311L584 307z"/>
<path style="fill:#595959; stroke:none;" d="M676 307L677 308L676 307M739 307L740 308L739 307z"/>
<path style="fill:#a6a6a6; stroke:none;" d="M677 308L678 309L677 308z"/>
<path style="fill:#595959; stroke:none;" d="M738 308L739 309L738 308z"/>
<path style="fill:#a6a6a6; stroke:none;" d="M678 309L680 311L678 309M737 309L738 310L737 309z"/>
<path style="fill:#595959; stroke:none;" d="M678 310L679 311L678 310z"/>
<path style="fill:#a6a6a6; stroke:none;" d="M736 310L735 312L736 310z"/>
<path style="fill:#595959; stroke:none;" d="M585 311L585 317L586 317L585 311M679 311L680 312L679 311M736 311L737 312L736 311M373 312L373 331L374 331L373 312z"/>
<path style="fill:#a6a6a6; stroke:none;" d="M680 312L681 313L680 312z"/>
<path style="fill:#595959; stroke:none;" d="M735 312L736 313L735 312z"/>
<path style="fill:#a6a6a6; stroke:none;" d="M681 313L682 314L681 313M734 313L735 314L734 313z"/>
<path style="fill:#595959; stroke:none;" d="M681 314L682 315L681 314z"/>
<path style="fill:#a6a6a6; stroke:none;" d="M733 314L734 315L733 314z"/>
<path style="fill:#595959; stroke:none;" d="M682 315L683 316L682 315M734 315L736 317L734 315z"/>
<path style="fill:#a6a6a6; stroke:none;" d="M683 316L684 317L683 316M734 316L735 317L734 316M585 317L585 333L586 333L585 317M684 317L685 318L684 317M735 317L736 318L735 317z"/>
<path style="fill:#595959; stroke:none;" d="M683 318L684 319L683 318M736 318L737 319L736 318z"/>
<path style="fill:#a6a6a6; stroke:none;" d="M683 319L684 320L683 319z"/>
<path style="fill:#595959; stroke:none;" d="M737 319L738 320L737 319z"/>
<path style="fill:#a6a6a6; stroke:none;" d="M682 320L683 321L682 320M737 320L738 321L737 320z"/>
<path style="fill:#595959; stroke:none;" d="M681 321L680 323L681 321z"/>
<path style="fill:#a6a6a6; stroke:none;" d="M738 321L739 322L738 321M681 322L682 323L681 322z"/>
<path style="fill:#595959; stroke:none;" d="M739 322L741 324L739 322z"/>
<path style="fill:#a6a6a6; stroke:none;" d="M680 323L681 324L680 323M739 323L740 324L739 323z"/>
<path style="fill:#595959; stroke:none;" d="M679 324L678 326L679 324z"/>
<path style="fill:#a6a6a6; stroke:none;" d="M740 324L741 325L740 324M679 325L680 326L679 325z"/>
<path style="fill:#595959; stroke:none;" d="M741 325L742 326L741 325z"/>
<path style="fill:#a6a6a6; stroke:none;" d="M678 326L679 327L678 326z"/>
<path style="fill:#595959; stroke:none;" d="M742 326L744 328L742 326M677 327L678 328L677 327z"/>
<path style="fill:#a6a6a6; stroke:none;" d="M742 327L743 328L742 327z"/>
<path style="fill:#595959; stroke:none;" d="M676 328L675 330L676 328z"/>
<path style="fill:#a6a6a6; stroke:none;" d="M743 328L744 329L743 328M676 329L677 330L676 329z"/>
<path style="fill:#595959; stroke:none;" d="M744 329L745 330L744 329z"/>
<path style="fill:#a6a6a6; stroke:none;" d="M675 330L676 331L675 330z"/>
<path style="fill:#595959; stroke:none;" d="M745 330L746 331L745 330M674 331L673 333L674 331z"/>
<path style="fill:#a6a6a6; stroke:none;" d="M745 331L746 332L745 331M374 332L374 338L375 338L374 332M674 332L675 333L674 332M746 332L747 333L746 332M413 333L413 344L414 344L413 333z"/>
<path style="fill:#595959; stroke:none;" d="M414 333L414 334L586 334C572.879 328.494 549.3 333 535 333L414 333z"/>
<path style="fill:#a6a6a6; stroke:none;" d="M673 333L674 334L673 333z"/>
<path style="fill:#595959; stroke:none;" d="M747 333L749 335L747 333M672 334L673 335L672 334z"/>
<path style="fill:#a6a6a6; stroke:none;" d="M747 334L748 335L747 334z"/>
<path style="fill:#595959; stroke:none;" d="M671 335L670 337L671 335z"/>
<path style="fill:#a6a6a6; stroke:none;" d="M748 335L749 336L748 335M671 336L672 337L671 336z"/>
<path style="fill:#595959; stroke:none;" d="M749 336L750 337L749 336z"/>
<path style="fill:#a6a6a6; stroke:none;" d="M670 337L671 338L670 337z"/>
<path style="fill:#595959; stroke:none;" d="M750 337L751 338L750 337M374 338L374 343L375 343L374 338M669 338L668 340L669 338z"/>
<path style="fill:#a6a6a6; stroke:none;" d="M750 338L751 339L750 338M669 339L670 340L669 339M751 339L752 340L751 339M668 340L669 341L668 340z"/>
<path style="fill:#595959; stroke:none;" d="M752 340L754 342L752 340M667 341L668 342L667 341z"/>
<path style="fill:#a6a6a6; stroke:none;" d="M752 341L753 342L752 341M375 342L375 346L376 346L375 342z"/>
<path style="fill:#595959; stroke:none;" d="M666 342L667 343L666 342z"/>
<path style="fill:#a6a6a6; stroke:none;" d="M753 342L754 343L753 342M666 343L667 344L666 343z"/>
<path style="fill:#595959; stroke:none;" d="M754 343L755 344L754 343z"/>
<path style="fill:#a6a6a6; stroke:none;" d="M665 344L666 345L665 344z"/>
<path style="fill:#595959; stroke:none;" d="M755 344L756 345L755 344M664 345L663 347L664 345z"/>
<path style="fill:#a6a6a6; stroke:none;" d="M707 347L710 346L707 347M755 345L756 346L755 345z"/>
<path style="fill:#595959; stroke:none;" d="M375 346L375 349L376 349L375 346M414 346L414 350L415 350L414 346z"/>
<path style="fill:#a6a6a6; stroke:none;" d="M664 346L665 347L664 346z"/>
<path style="fill:#595959; stroke:none;" d="M708 346L709 347L708 346z"/>
<path style="fill:#a6a6a6; stroke:none;" d="M710 346L711 347L710 346M756 346L757 347L756 346M663 347L664 348L663 347z"/>
<path style="fill:#595959; stroke:none;" d="M707 347L708 348L707 347M710 347L711 348L710 347M757 347L759 349L757 347M662 348L663 349L662 348z"/>
<path style="fill:#a6a6a6; stroke:none;" d="M706 348L705 350L706 348M711 348L712 349L711 348M757 348L758 349L757 348M376 349L376 352L377 352L376 349z"/>
<path style="fill:#595959; stroke:none;" d="M661 349L662 350L661 349M706 349L707 350L706 349z"/>
<path style="fill:#a6a6a6; stroke:none;" d="M712 349L713 350L712 349M758 349L759 350L758 349M414 350L414 354L415 354L414 350M661 350L662 351L661 350z"/>
<path style="fill:#595959; stroke:none;" d="M705 350L706 351L705 350M712 350L713 351L712 350M759 350L760 351L759 350z"/>
<path style="fill:#a6a6a6; stroke:none;" d="M660 351L661 352L660 351M704 351L703 353L704 351M713 351L714 352L713 351z"/>
<path style="fill:#595959; stroke:none;" d="M760 351L761 352L760 351M376 352L376 355L377 355L376 352M659 352L658 354L659 352M704 352L705 353L704 352z"/>
<path style="fill:#a6a6a6; stroke:none;" d="M714 352L715 353L714 352M760 352L761 353L760 352z"/>
<path style="fill:#595959; stroke:none;" d="M415 353L415 357L416 357L415 353z"/>
<path style="fill:#a6a6a6; stroke:none;" d="M659 353L660 354L659 353z"/>
<path style="fill:#595959; stroke:none;" d="M703 353L704 354L703 353M714 353L715 354L714 353z"/>
<path style="fill:#a6a6a6; stroke:none;" d="M761 353L762 354L761 353M658 354L659 355L658 354M702 354L703 355L702 354M715 354L716 355L715 354z"/>
<path style="fill:#595959; stroke:none;" d="M762 354L764 356L762 354z"/>
<path style="fill:#a6a6a6; stroke:none;" d="M377.333 355.667L377.667 356.333L377.333 355.667z"/>
<path style="fill:#595959; stroke:none;" d="M657 355L658 356L657 355z"/>
<path style="fill:#a6a6a6; stroke:none;" d="M701 355L702 356L701 355M716 355L717 356L716 355M762 355L763 356L762 355z"/>
<path style="fill:#595959; stroke:none;" d="M656 356L657 357L656 356M701 356L702 357L701 356M716 356L717 357L716 356z"/>
<path style="fill:#a6a6a6; stroke:none;" d="M763 356L764 357L763 356z"/>
<path style="fill:#595959; stroke:none;" d="M377 357L377 360L378 360L377 357z"/>
<path style="fill:#a6a6a6; stroke:none;" d="M415.333 357.667L415.667 358.333L415.333 357.667M656 357L657 358L656 357M700 357L701 358L700 357z"/>
<path style="fill:#595959; stroke:none;" d="M717 357L718 358L717 357M764 357L765 358L764 357z"/>
<path style="fill:#a6a6a6; stroke:none;" d="M655 358L656 359L655 358M699 358L700 359L699 358M718 358L719 359L718 358z"/>
<path style="fill:#595959; stroke:none;" d="M765 358L766 359L765 358z"/>
<path style="fill:#a6a6a6; stroke:none;" d="M378 359L378 362L379 362L378 359z"/>
<path style="fill:#595959; stroke:none;" d="M416.333 359.667L416.667 360.333L416.333 359.667M654 359L653 361L654 359M699 359L700 360L699 359M718 359L719 360L718 359z"/>
<path style="fill:#a6a6a6; stroke:none;" d="M765 359L766 360L765 359M654 360L655 361L654 360M698 360L699 361L698 360z"/>
<path style="fill:#595959; stroke:none;" d="M719 360L720 361L719 360z"/>
<path style="fill:#a6a6a6; stroke:none;" d="M766 360L767 361L766 360M416.333 361.667L416.667 362.333L416.333 361.667M653 361L654 362L653 361M697 361L698 362L697 361M720 361L721 362L720 361z"/>
<path style="fill:#595959; stroke:none;" d="M767 361L769 363L767 361M378.333 362.667L378.667 363.333L378.333 362.667M652 362L653 363L652 362M697 362L698 363L697 362M720 362L721 363L720 362z"/>
<path style="fill:#a6a6a6; stroke:none;" d="M767 362L768 363L767 362z"/>
<path style="fill:#595959; stroke:none;" d="M417.333 363.667L417.667 364.333L417.333 363.667M651 363L652 364L651 363z"/>
<path style="fill:#a6a6a6; stroke:none;" d="M696 363L697 364L696 363z"/>
<path style="fill:#595959; stroke:none;" d="M721 363L722 364L721 363z"/>
<path style="fill:#a6a6a6; stroke:none;" d="M768 363L769 364L768 363M379.333 364.667L379.667 365.333L379.333 364.667M651 364L652 365L651 364M695 364L696 365L695 364M722 364L723 365L722 364z"/>
<path style="fill:#595959; stroke:none;" d="M769 364L770 365L769 364z"/>
<path style="fill:#a6a6a6; stroke:none;" d="M417.333 365.667L417.667 366.333L417.333 365.667M650 365L651 366L650 365z"/>
<path style="fill:#595959; stroke:none;" d="M695 365L696 366L695 365M722 365L723 366L722 365M770 365L771 366L770 365M379.333 366.667L379.667 367.333L379.333 366.667M418.333 366.667L418.667 367.333L418.333 366.667M649 366L648 368L649 366z"/>
<path style="fill:#a6a6a6; stroke:none;" d="M694 366L695 367L694 366z"/>
<path style="fill:#595959; stroke:none;" d="M723 366L724 367L723 366z"/>
<path style="fill:#a6a6a6; stroke:none;" d="M770 366L771 367L770 366M380.333 367.667L380.667 368.333L380.333 367.667M649 367L650 368L649 367M693 367L694 368L693 367M724 367L725 368L724 367M771 367L772 368L771 367M418 368L419 369L418 368M648 368L649 369L648 368z"/>
<path style="fill:#595959; stroke:none;" d="M693 368L694 369L693 368M724 368L725 369L724 368M772 368L774 370L772 368M380.333 369.667L380.667 370.333L380.333 369.667M419.333 369.667L419.667 370.333L419.333 369.667M544 369L544 370L582 370C571.964 365.789 554.911 369 544 369M647 369L648 370L647 369M692 369L693 370L692 369M725 369L726 370L725 369z"/>
<path style="fill:#a6a6a6; stroke:none;" d="M772 369L773 370L772 369M544.333 370.667L544.667 371.333L544.333 370.667M581 370L581 373L582 373L581 370z"/>
<path style="fill:#595959; stroke:none;" d="M646 370L647 371L646 370z"/>
<path style="fill:#a6a6a6; stroke:none;" d="M691 370L692 371L691 370M726 370L728 372L726 370M773 370L774 371L773 370M381 371L382 372L381 371M419 371L420 372L419 371M646 371L647 372L646 371z"/>
<path style="fill:#595959; stroke:none;" d="M691 371L692 372L691 371M726 371L727 372L726 371M774 371L775 372L774 371M381.333 372.667L381.667 373.333L381.333 372.667M420 372L421 373L420 372M543.333 372.667L543.667 373.333L543.333 372.667z"/>
<path style="fill:#a6a6a6; stroke:none;" d="M645 372L646 373L645 372z"/>
<path style="fill:#595959; stroke:none;" d="M690 372L691 373L690 372M727 372L728 373L727 372M775 372L776 373L775 372z"/>
<path style="fill:#a6a6a6; stroke:none;" d="M420 373L421 374L420 373z"/>
<path style="fill:#595959; stroke:none;" d="M581.333 373.667L581.667 374.333L581.333 373.667M644 373L643 375L644 373z"/>
<path style="fill:#a6a6a6; stroke:none;" d="M689 373L690 374L689 373M728 373L730 375L728 373M775 373L776 374L775 373M382.333 374.667L382.667 375.333L382.333 374.667z"/>
<path style="fill:#595959; stroke:none;" d="M421 374L422 375L421 374z"/>
<path style="fill:#a6a6a6; stroke:none;" d="M543.333 374.667L543.667 375.333L543.333 374.667M644 374L645 375L644 374z"/>
<path style="fill:#595959; stroke:none;" d="M689 374L690 375L689 374M728 374L729 375L728 374z"/>
<path style="fill:#a6a6a6; stroke:none;" d="M776 374L777 375L776 374M421 375L422 376L421 375M580.333 375.667L580.667 376.333L580.333 375.667M643 375L644 376L643 375z"/>
<path style="fill:#595959; stroke:none;" d="M688 375L689 376L688 375M729 375L730 376L729 375M777 375L779 377L777 375M382 376L383 377L382 376M422 376L423 377L422 376M542 376L543 377L542 376M642 376L643 377L642 376z"/>
<path style="fill:#a6a6a6; stroke:none;" d="M687 376L688 377L687 376M730 376L732 378L730 376M777 376L778 377L777 376M383 377L384 378L383 377M422 377L423 378L422 377M542.333 377.667L542.667 378.333L542.333 377.667z"/>
<path style="fill:#595959; stroke:none;" d="M580.333 377.667L580.667 378.333L580.333 377.667M641 377L642 378L641 377M687 377L688 378L687 377M730 377L731 378L730 377z"/>
<path style="fill:#a6a6a6; stroke:none;" d="M778 377L779 378L778 377z"/>
<path style="fill:#595959; stroke:none;" d="M383.333 378.667L383.667 379.333L383.333 378.667M423 378L425 380L423 378M541.333 378.667L541.667 379.333L541.333 378.667z"/>
<path style="fill:#a6a6a6; stroke:none;" d="M641 378L642 379L641 378z"/>
<path style="fill:#595959; stroke:none;" d="M686 378L687 379L686 378M731 378L732 379L731 378M779 378L780 379L779 378z"/>
<path style="fill:#a6a6a6; stroke:none;" d="M423 379L424 380L423 379M579 379L580 380L579 379M640 379L641 380L640 379M685 379L686 380L685 379M732 379L734 381L732 379z"/>
<path style="fill:#595959; stroke:none;" d="M780 379L781 380L780 379z"/>
<path style="fill:#a6a6a6; stroke:none;" d="M384 380L385 381L384 380M424 380L425 381L424 380M541 380L542 381L541 380z"/>
<path style="fill:#595959; stroke:none;" d="M579.333 380.667L579.667 381.333L579.333 380.667M639 380L638 382L639 380M685 380L686 381L685 380M732 380L733 381L732 380z"/>
<path style="fill:#a6a6a6; stroke:none;" d="M780 380L781 381L780 380z"/>
<path style="fill:#595959; stroke:none;" d="M384 381L385 382L384 381M425 381L426 382L425 381M540 381L541 382L540 381z"/>
<path style="fill:#a6a6a6; stroke:none;" d="M639 381L640 382L639 381z"/>
<path style="fill:#595959; stroke:none;" d="M684 381L685 382L684 381M733 381L734 382L733 381z"/>
<path style="fill:#a6a6a6; stroke:none;" d="M781 381L782 382L781 381M385 382L386 383L385 382M425 382L426 383L425 382M540 382L541 383L540 382M578.333 382.667L578.667 383.333L578.333 382.667M638 382L639 383L638 382M683 382L684 383L683 382M734 382L736 384L734 382z"/>
<path style="fill:#595959; stroke:none;" d="M782 382L783 383L782 382M385.333 383.667L385.667 384.333L385.333 383.667z"/>
<path style="fill:#a6a6a6; stroke:none;" d="M426 383L427 384L426 383z"/>
<path style="fill:#595959; stroke:none;" d="M539 383L540 384L539 383M637 383L638 384L637 383M683 383L684 384L683 383M734 383L735 384L734 383M783 383L784 384L783 383M427 384L429 386L427 384z"/>
<path style="fill:#a6a6a6; stroke:none;" d="M539 384L540 385L539 384z"/>
<path style="fill:#595959; stroke:none;" d="M578 384L579 385L578 384M636 384L637 385L636 384M682 384L683 385L682 384M735 384L736 385L735 384z"/>
<path style="fill:#a6a6a6; stroke:none;" d="M783 384L784 385L783 384M386 385L387 386L386 385M427 385L428 386L427 385z"/>
<path style="fill:#595959; stroke:none;" d="M538 385L539 386L538 385z"/>
<path style="fill:#a6a6a6; stroke:none;" d="M577 385L578 386L577 385M636 385L637 386L636 385M681 385L682 386L681 385M736 385L738 387L736 385M784 385L785 386L784 385z"/>
<path style="fill:#595959; stroke:none;" d="M386 386L387 387L386 386z"/>
<path style="fill:#a6a6a6; stroke:none;" d="M428 386L429 387L428 386z"/>
<path style="fill:#595959; stroke:none;" d="M537 386L538 387L537 386M577.333 386.667L577.667 387.333L577.333 386.667z"/>
<path style="fill:#a6a6a6; stroke:none;" d="M635 386L636 387L635 386z"/>
<path style="fill:#595959; stroke:none;" d="M681 386L682 387L681 386M736 386L737 387L736 386M785 386L787 388L785 386z"/>
<path style="fill:#a6a6a6; stroke:none;" d="M387 387L388 388L387 387M429 387L430 388L429 387M537 387L538 388L537 387z"/>
<path style="fill:#595959; stroke:none;" d="M634 387L633 389L634 387M680 387L681 388L680 387M737 387L738 388L737 387z"/>
<path style="fill:#a6a6a6; stroke:none;" d="M785 387L786 388L785 387z"/>
<path style="fill:#595959; stroke:none;" d="M387 388L388 389L387 388M430 388L431 389L430 388M536 388L537 389L536 388z"/>
<path style="fill:#a6a6a6; stroke:none;" d="M576 388L577 389L576 388M634 388L635 389L634 388M679 388L678 390L679 388M738 388L740 390L738 388M786 388L787 389L786 388M388 389L389 390L388 389z"/>
<path style="fill:#595959; stroke:none;" d="M431 389L432 390L431 389M535 389L536 390L535 389M576 389L577 390L576 389z"/>
<path style="fill:#a6a6a6; stroke:none;" d="M633 389L634 390L633 389z"/>
<path style="fill:#595959; stroke:none;" d="M679 389L680 390L679 389M738 389L739 390L738 389M787 389L788 390L787 389M388 390L389 391L388 390M432 390L433 391L432 390M534 390L528 397L534 390z"/>
<path style="fill:#a6a6a6; stroke:none;" d="M575 390L576 391L575 390z"/>
<path style="fill:#595959; stroke:none;" d="M632 390L633 391L632 390M678 390L679 391L678 390M739 390L740 391L739 390M788 390L789 391L788 390z"/>
<path style="fill:#a6a6a6; stroke:none;" d="M389 391L390 392L389 391z"/>
<path style="fill:#595959; stroke:none;" d="M433 391L434 392L433 391z"/>
<path style="fill:#a6a6a6; stroke:none;" d="M534 391L535 392L534 391z"/>
<path style="fill:#595959; stroke:none;" d="M575.333 391.667L575.667 392.333L575.333 391.667M631 391L632 392L631 391z"/>
<path style="fill:#a6a6a6; stroke:none;" d="M677 391L676 393L677 391M740 391L741 392L740 391M788 391L789 392L788 391z"/>
<path style="fill:#595959; stroke:none;" d="M389 392L390 393L389 392M434 392L435 393L434 392z"/>
<path style="fill:#a6a6a6; stroke:none;" d="M533 392L534 393L533 392M574.333 392.667L574.667 393.333L574.333 392.667M631 392L632 393L631 392z"/>
<path style="fill:#595959; stroke:none;" d="M677 392L678 393L677 392z"/>
<path style="fill:#a6a6a6; stroke:none;" d="M741 392L742 393L741 392M789 392L790 393L789 392M390 393L392 395L390 393z"/>
<path style="fill:#595959; stroke:none;" d="M435 393L436 394L435 393z"/>
<path style="fill:#a6a6a6; stroke:none;" d="M532 393L533 394L532 393M630 393L631 394L630 393z"/>
<path style="fill:#595959; stroke:none;" d="M676 393L677 394L676 393M741 393L742 394L741 393M790 393L792 395L790 393M390 394L391 395L390 394M436 394L437 395L436 394z"/>
<path style="fill:#a6a6a6; stroke:none;" d="M531 394L532 395L531 394z"/>
<path style="fill:#595959; stroke:none;" d="M574 394L575 395L574 394M629 394L628 396L629 394z"/>
<path style="fill:#a6a6a6; stroke:none;" d="M675 394L674 396L675 394M742 394L743 395L742 394M790 394L791 395L790 394z"/>
<path style="fill:#595959; stroke:none;" d="M391 395L392 396L391 395z"/>
<path style="fill:#a6a6a6; stroke:none;" d="M437 395L438 396L437 395M530 395L531 396L530 395M573 395L571 399L572 399L573 395M629 395L630 396L629 395z"/>
<path style="fill:#595959; stroke:none;" d="M675 395L676 396L675 395z"/>
<path style="fill:#a6a6a6; stroke:none;" d="M743 395L744 396L743 395M791 395L792 396L791 395M392 396L393 397L392 396M438 396L440 398L438 396z"/>
<path style="fill:#595959; stroke:none;" d="M439 396L440 397L439 396z"/>
<path style="fill:#a6a6a6; stroke:none;" d="M529 396L530 397L529 396z"/>
<path style="fill:#595959; stroke:none;" d="M573 396L574 397L573 396z"/>
<path style="fill:#a6a6a6; stroke:none;" d="M628 396L629 397L628 396z"/>
<path style="fill:#595959; stroke:none;" d="M674 396L675 397L674 396M743 396L744 397L743 396M792 396L793 397L792 396M392 397L393 398L392 397M440 397L441 398L440 397M527 397L528 398L527 397M627 397L628 398L627 397z"/>
<path style="fill:#a6a6a6; stroke:none;" d="M673 397L672 399L673 397M744 397L745 398L744 397z"/>
<path style="fill:#595959; stroke:none;" d="M793 397L794 398L793 397z"/>
<path style="fill:#a6a6a6; stroke:none;" d="M393 398L395 400L393 398M441 398L442 399L441 398M526 398L527 399L526 398z"/>
<path style="fill:#595959; stroke:none;" d="M572 398L573 399L572 398M626 398L627 399L626 398M673 398L674 399L673 398z"/>
<path style="fill:#a6a6a6; stroke:none;" d="M745 398L746 399L745 398M793 398L794 399L793 398z"/>
<path style="fill:#595959; stroke:none;" d="M393 399L394 400L393 399z"/>
<path style="fill:#a6a6a6; stroke:none;" d="M442 399L443 400L442 399z"/>
<path style="fill:#595959; stroke:none;" d="M443 399L444 400L443 399M524 399L525 400L524 399z"/>
<path style="fill:#a6a6a6; stroke:none;" d="M525 399L526 400L525 399z"/>
<path style="fill:#595959; stroke:none;" d="M571 399L572 400L571 399z"/>
<path style="fill:#a6a6a6; stroke:none;" d="M626 399L627 400L626 399z"/>
<path style="fill:#595959; stroke:none;" d="M672 399L673 400L672 399M745 399L746 400L745 399z"/>
<path style="fill:#a6a6a6; stroke:none;" d="M794 399L795 400L794 399z"/>
<path style="fill:#595959; stroke:none;" d="M394 400L395 401L394 400z"/>
<path style="fill:#a6a6a6; stroke:none;" d="M444 400L446 402L444 400z"/>
<path style="fill:#595959; stroke:none;" d="M445 400L446 401L445 400M523 400L524 401L523 400z"/>
<path style="fill:#a6a6a6; stroke:none;" d="M570 400L571 401L570 400M625 400L626 401L625 400M671 400L670 402L671 400M746 400L747 401L746 400z"/>
<path style="fill:#595959; stroke:none;" d="M795 400L797 402L795 400z"/>
<path style="fill:#a6a6a6; stroke:none;" d="M395 401L397 403L395 401z"/>
<path style="fill:#595959; stroke:none;" d="M446 401L447 402L446 401M521 401L522 402L521 401z"/>
<path style="fill:#a6a6a6; stroke:none;" d="M522 401L523 402L522 401z"/>
<path style="fill:#595959; stroke:none;" d="M570 401L571 402L570 401M624 401L623 403L624 401M671 401L672 402L671 401z"/>
<path style="fill:#a6a6a6; stroke:none;" d="M747 401L748 402L747 401M795 401L796 402L795 401z"/>
<path style="fill:#595959; stroke:none;" d="M395 402L396 403L395 402z"/>
<path style="fill:#a6a6a6; stroke:none;" d="M447 402L448 403L447 402z"/>
<path style="fill:#595959; stroke:none;" d="M448 402L449 403L448 402z"/>
<path style="fill:#a6a6a6; stroke:none;" d="M520 402L521 403L520 402M569 402L570 403L569 402M624 402L625 403L624 402z"/>
<path style="fill:#595959; stroke:none;" d="M670 402L671 403L670 402M747 402L748 403L747 402z"/>
<path style="fill:#a6a6a6; stroke:none;" d="M796 402L797 403L796 402z"/>
<path style="fill:#595959; stroke:none;" d="M396 403L397 404L396 403z"/>
<path style="fill:#a6a6a6; stroke:none;" d="M449 403L450 404L449 403z"/>
<path style="fill:#595959; stroke:none;" d="M450 403L451 404L450 403M518 403L519 404L518 403z"/>
<path style="fill:#a6a6a6; stroke:none;" d="M519 403L520 404L519 403M568 403L569 404L568 403M623 403L624 404L623 403M669 403L668 405L669 403M748 403L749 404L748 403z"/>
<path style="fill:#595959; stroke:none;" d="M797 403L798 404L797 403z"/>
<path style="fill:#a6a6a6; stroke:none;" d="M397 404L398 405L397 404M451 404L452 405L451 404z"/>
<path style="fill:#595959; stroke:none;" d="M452 404L453 405L452 404M516 404L517 405L516 404z"/>
<path style="fill:#a6a6a6; stroke:none;" d="M517 404L518 405L517 404z"/>
<path style="fill:#595959; stroke:none;" d="M568 404L569 405L568 404M622 404L623 405L622 404M669 404L670 405L669 404z"/>
<path style="fill:#a6a6a6; stroke:none;" d="M749 404L750 405L749 404z"/>
<path style="fill:#595959; stroke:none;" d="M798 404L799 405L798 404z"/>
<path style="fill:#a6a6a6; stroke:none;" d="M398 405L400 407L398 405M453 405L454 406L453 405z"/>
<path style="fill:#595959; stroke:none;" d="M454.667 405.333L455.333 405.667L454.667 405.333M513.667 405.333L514.333 405.667L513.667 405.333z"/>
<path style="fill:#a6a6a6; stroke:none;" d="M515 405L516 406L515 405M567 405L568 406L567 405z"/>
<path style="fill:#595959; stroke:none;" d="M621 405L622 406L621 405M668 405L669 406L668 405M749 405L750 406L749 405z"/>
<path style="fill:#a6a6a6; stroke:none;" d="M798 405L799 406L798 405z"/>
<path style="fill:#595959; stroke:none;" d="M398 406L399 407L398 406z"/>
<path style="fill:#a6a6a6; stroke:none;" d="M456 406L457 407L456 406z"/>
<path style="fill:#595959; stroke:none;" d="M457.667 406.333L458.333 406.667L457.667 406.333M511 406L512 407L511 406z"/>
<path style="fill:#a6a6a6; stroke:none;" d="M512 406L513 407L512 406M566 406L565 408L566 406M621 406L622 407L621 406M667 406L668 407L667 406M750 406L751 407L750 406M799 406L800 407L799 406z"/>
<path style="fill:#595959; stroke:none;" d="M399 407L400 408L399 407z"/>
<path style="fill:#a6a6a6; stroke:none;" d="M458.667 407.333L459.333 407.667L458.667 407.333z"/>
<path style="fill:#595959; stroke:none;" d="M460.667 407.333L461.333 407.667L460.667 407.333M508 407L509 408L508 407z"/>
<path style="fill:#a6a6a6; stroke:none;" d="M509.667 407.333L510.333 407.667L509.667 407.333z"/>
<path style="fill:#595959; stroke:none;" d="M566 407L567 408L566 407z"/>
<path style="fill:#a6a6a6; stroke:none;" d="M620 407L621 408L620 407M666 407L667 408L666 407M751 407L752 408L751 407z"/>
<path style="fill:#595959; stroke:none;" d="M800 407L802 409L800 407M400 408L401 409L400 408z"/>
<path style="fill:#a6a6a6; stroke:none;" d="M462.667 408.333L463.333 408.667L462.667 408.333z"/>
<path style="fill:#595959; stroke:none;" d="M464.667 408.333L465.333 408.667L464.667 408.333M504.667 408.333L505.333 408.667L504.667 408.333z"/>
<path style="fill:#a6a6a6; stroke:none;" d="M506.667 408.333L507.333 408.667L506.667 408.333z"/>
<path style="fill:#595959; stroke:none;" d="M565 408L566 409L565 408M619 408L618 410L619 408M666 408L667 409L666 408M751 408L752 409L751 408z"/>
<path style="fill:#a6a6a6; stroke:none;" d="M800 408L801 409L800 408M401 409L402 410L401 409M466.667 409.333L467.333 409.667L466.667 409.333z"/>
<path style="fill:#595959; stroke:none;" d="M468 409L468 410L471 410L468 409M499.667 409.333L500.333 409.667L499.667 409.333z"/>
<path style="fill:#a6a6a6; stroke:none;" d="M501 409L501 410L504 410L501 409z"/>
<path style="fill:#595959; stroke:none;" d="M564 409L565 410L564 409z"/>
<path style="fill:#a6a6a6; stroke:none;" d="M619 409L620 410L619 409M665 409L666 410L665 409z"/>
<path style="fill:#595959; stroke:none;" d="M752 409L753 410L752 409z"/>
<path style="fill:#a6a6a6; stroke:none;" d="M801 409L802 410L801 409M402 410L403 411L402 410M471 410L471 411L475 411L471 410z"/>
<path style="fill:#595959; stroke:none;" d="M475 410L475 411L495 411L475 410z"/>
<path style="fill:#a6a6a6; stroke:none;" d="M495 410L495 411L498 411L495 410M563 410L564 411L563 410M618 410L619 411L618 410M664 410L665 411L664 410M753 410L754 411L753 410z"/>
<path style="fill:#595959; stroke:none;" d="M802 410L803 411L802 410z"/>
<path style="fill:#a6a6a6; stroke:none;" d="M403 411L411 419L403 411M485 411L486 412L485 411M562 411L554 420L562 411z"/>
<path style="fill:#595959; stroke:none;" d="M617 411L618 412L617 411M664 411L665 412L664 411M753 411L754 412L753 411M803 411L804 412L803 411M403 412L404 413L403 412M562 412L563 413L562 412M616 412L617 413L616 412z"/>
<path style="fill:#a6a6a6; stroke:none;" d="M663 412L664 413L663 412z"/>
<path style="fill:#595959; stroke:none;" d="M754 412L755 413L754 412z"/>
<path style="fill:#a6a6a6; stroke:none;" d="M803 412L804 413L803 412z"/>
<path style="fill:#595959; stroke:none;" d="M404 413L405 414L404 413M561 413L562 414L561 413z"/>
<path style="fill:#a6a6a6; stroke:none;" d="M616 413L617 414L616 413M662 413L663 414L662 413M755 413L756 414L755 413M804 413L805 414L804 413z"/>
<path style="fill:#595959; stroke:none;" d="M405 414L406 415L405 414M560 414L561 415L560 414z"/>
<path style="fill:#a6a6a6; stroke:none;" d="M615 414L616 415L615 414z"/>
<path style="fill:#595959; stroke:none;" d="M662 414L663 415L662 414M755 414L756 415L755 414M805 414L807 416L805 414M406 415L407 416L406 415M559 415L560 416L559 415M614 415L613 417L614 415z"/>
<path style="fill:#a6a6a6; stroke:none;" d="M661 415L662 416L661 415z"/>
<path style="fill:#595959; stroke:none;" d="M756 415L757 416L756 415z"/>
<path style="fill:#a6a6a6; stroke:none;" d="M805 415L806 416L805 415z"/>
<path style="fill:#595959; stroke:none;" d="M407 416L408 417L407 416M558 416L559 417L558 416z"/>
<path style="fill:#a6a6a6; stroke:none;" d="M614 416L615 417L614 416M660 416L661 417L660 416M757 416L758 417L757 416M806 416L807 417L806 416z"/>
<path style="fill:#595959; stroke:none;" d="M408 417L409 418L408 417M557 417L558 418L557 417z"/>
<path style="fill:#a6a6a6; stroke:none;" d="M613 417L614 418L613 417z"/>
<path style="fill:#595959; stroke:none;" d="M660 417L661 418L660 417M757 417L758 418L757 417M807 417L808 418L807 417M409 418L410 419L409 418M556 418L557 419L556 418M612 418L613 419L612 418z"/>
<path style="fill:#a6a6a6; stroke:none;" d="M659 418L660 419L659 418z"/>
<path style="fill:#595959; stroke:none;" d="M758 418L759 419L758 418M808 418L809 419L808 418z"/>
<path style="fill:#a6a6a6; stroke:none;" d="M411 419L412 420L411 419z"/>
<path style="fill:#595959; stroke:none;" d="M555 419L556 420L555 419M611 419L612 420L611 419z"/>
<path style="fill:#a6a6a6; stroke:none;" d="M658 419L659 420L658 419M759 419L760 420L759 419M808 419L809 420L808 419M412 420L413 421L412 420M553 420L554 421L553 420M611 420L612 421L611 420z"/>
<path style="fill:#595959; stroke:none;" d="M658 420L659 421L658 420M759 420L760 421L759 420z"/>
<path style="fill:#a6a6a6; stroke:none;" d="M809 420L810 421L809 420z"/>
<path style="fill:#595959; stroke:none;" d="M413 421L414 422L413 421M552 421L553 422L552 421z"/>
<path style="fill:#a6a6a6; stroke:none;" d="M610 421L611 422L610 421M657 421L658 422L657 421z"/>
<path style="fill:#595959; stroke:none;" d="M760 421L761 422L760 421M810 421L812 423L810 421M414 422L416 424L414 422z"/>
<path style="fill:#a6a6a6; stroke:none;" d="M415 422L416 423L415 422z"/>
<path style="fill:#595959; stroke:none;" d="M551 422L552 423L551 422M609 422L608 424L609 422z"/>
<path style="fill:#a6a6a6; stroke:none;" d="M656 422L657 423L656 422M761 422L762 423L761 422M810 422L811 423L810 422M416 423L417 424L416 423M549 423L550 424L549 423z"/>
<path style="fill:#595959; stroke:none;" d="M550 423L551 424L550 423z"/>
<path style="fill:#a6a6a6; stroke:none;" d="M609 423L610 424L609 423z"/>
<path style="fill:#595959; stroke:none;" d="M656 423L657 424L656 423M761 423L762 424L761 423z"/>
<path style="fill:#a6a6a6; stroke:none;" d="M811 423L812 424L811 423M417 424L418 425L417 424M548 424L549 425L548 424M608 424L609 425L608 424z"/>
<path style="fill:#595959; stroke:none;" d="M655 424L656 425L655 424M762 424L763 425L762 424M812 424L813 425L812 424M418 425L420 427L418 425z"/>
<path style="fill:#a6a6a6; stroke:none;" d="M419 425L420 426L419 425z"/>
<path style="fill:#595959; stroke:none;" d="M547 425L548 426L547 425M607 425L608 426L607 425z"/>
<path style="fill:#a6a6a6; stroke:none;" d="M654 425L655 426L654 425M763 425L765 427L763 425z"/>
<path style="fill:#595959; stroke:none;" d="M813 425L814 426L813 425z"/>
<path style="fill:#a6a6a6; stroke:none;" d="M420 426L421 427L420 426M545 426L546 427L545 426z"/>
<path style="fill:#595959; stroke:none;" d="M546 426L547 427L546 426M606 426L607 427L606 426M654 426L655 427L654 426M763 426L764 427L763 426z"/>
<path style="fill:#a6a6a6; stroke:none;" d="M813 426L814 427L813 426z"/>
<path style="fill:#595959; stroke:none;" d="M421 427L422 428L421 427z"/>
<path style="fill:#a6a6a6; stroke:none;" d="M422 427L423 428L422 427z"/>
<path style="fill:#595959; stroke:none;" d="M544 427L545 428L544 427z"/>
<path style="fill:#a6a6a6; stroke:none;" d="M606 427L607 428L606 427z"/>
<path style="fill:#595959; stroke:none;" d="M653 427L654 428L653 427M764 427L765 428L764 427z"/>
<path style="fill:#a6a6a6; stroke:none;" d="M814 427L815 428L814 427M423 428L424 429L423 428M542 428L543 429L542 428z"/>
<path style="fill:#595959; stroke:none;" d="M543 428L544 429L543 428z"/>
<path style="fill:#a6a6a6; stroke:none;" d="M605 428L606 429L605 428M652 428L653 429L652 428M765 428L767 430L765 428z"/>
<path style="fill:#595959; stroke:none;" d="M815 428L817 430L815 428M424 429L425 430L424 429z"/>
<path style="fill:#a6a6a6; stroke:none;" d="M425 429L426 430L425 429M540 429L539 431L540 429z"/>
<path style="fill:#595959; stroke:none;" d="M541 429L542 430L541 429M604 429L603 431L604 429M652 429L653 430L652 429M765 429L766 430L765 429z"/>
<path style="fill:#a6a6a6; stroke:none;" d="M815 429L816 430L815 429z"/>
<path style="fill:#595959; stroke:none;" d="M426 430L427 431L426 430z"/>
<path style="fill:#a6a6a6; stroke:none;" d="M427 430L428 431L427 430z"/>
<path style="fill:#595959; stroke:none;" d="M540 430L541 431L540 430z"/>
<path style="fill:#a6a6a6; stroke:none;" d="M604 430L605 431L604 430z"/>
<path style="fill:#595959; stroke:none;" d="M651 430L652 431L651 430M766 430L767 431L766 430z"/>
<path style="fill:#a6a6a6; stroke:none;" d="M816 430L817 431L816 430z"/>
<path style="fill:#595959; stroke:none;" d="M428 431L430 433L428 431z"/>
<path style="fill:#a6a6a6; stroke:none;" d="M429 431L430 432L429 431M537 431L538 432L537 431z"/>
<path style="fill:#595959; stroke:none;" d="M538 431L539 432L538 431z"/>
<path style="fill:#a6a6a6; stroke:none;" d="M603 431L604 432L603 431M650 431L651 432L650 431M767 431L769 433L767 431z"/>
<path style="fill:#595959; stroke:none;" d="M817 431L818 432L817 431z"/>
<path style="fill:#a6a6a6; stroke:none;" d="M430.667 432.333L431.333 432.667L430.667 432.333M535 432L536 433L535 432z"/>
<path style="fill:#595959; stroke:none;" d="M536 432L537 433L536 432M602 432L603 433L602 432M650 432L651 433L650 432M767 432L768 433L767 432M818 432L819 433L818 432M431 433L431 434L435 435L435 434L431 433z"/>
<path style="fill:#a6a6a6; stroke:none;" d="M433 433L434 434L433 433M533 433L534 434L533 433z"/>
<path style="fill:#595959; stroke:none;" d="M534 433L535 434L534 433M601 433L602 434L601 433M649 433L650 434L649 433M768 433L769 434L768 433z"/>
<path style="fill:#a6a6a6; stroke:none;" d="M818 433L819 434L818 433M435 434L436 435L435 434M531 434L532 435L531 434z"/>
<path style="fill:#595959; stroke:none;" d="M532 434L533 435L532 434z"/>
<path style="fill:#a6a6a6; stroke:none;" d="M601 434L602 435L601 434M648 434L649 435L648 434M769 434L771 436L769 434M819 434L820 435L819 434z"/>
<path style="fill:#595959; stroke:none;" d="M436 435L437 436L436 435z"/>
<path style="fill:#a6a6a6; stroke:none;" d="M437 435L438 436L437 435M528.667 435.333L529.333 435.667L528.667 435.333z"/>
<path style="fill:#595959; stroke:none;" d="M530 435L531 436L530 435z"/>
<path style="fill:#a6a6a6; stroke:none;" d="M600 435L601 436L600 435z"/>
<path style="fill:#595959; stroke:none;" d="M648 435L649 436L648 435M769 435L770 436L769 435M820 435L821 436L820 435M438 436L439 437L438 436z"/>
<path style="fill:#a6a6a6; stroke:none;" d="M439.667 436.333L440.333 436.667L439.667 436.333M526 436L527 437L526 436z"/>
<path style="fill:#595959; stroke:none;" d="M527 436L528 437L527 436M599 436L598 438L599 436M647 436L648 437L647 436M770 436L771 437L770 436M821 436L822 437L821 436M441 437L442 438L441 437z"/>
<path style="fill:#a6a6a6; stroke:none;" d="M442 437L443 438L442 437M523.667 437.333L524.333 437.667L523.667 437.333z"/>
<path style="fill:#595959; stroke:none;" d="M525 437L526 438L525 437z"/>
<path style="fill:#a6a6a6; stroke:none;" d="M599 437L600 438L599 437M646 437L647 438L646 437M771 437L773 439L771 437M821 437L822 438L821 437z"/>
<path style="fill:#595959; stroke:none;" d="M443.667 438.333L444.333 438.667L443.667 438.333z"/>
<path style="fill:#a6a6a6; stroke:none;" d="M445.667 438.333L446.333 438.667L445.667 438.333M520.667 438.333L521.333 438.667L520.667 438.333z"/>
<path style="fill:#595959; stroke:none;" d="M522 438L523 439L522 438z"/>
<path style="fill:#a6a6a6; stroke:none;" d="M598 438L599 439L598 438z"/>
<path style="fill:#595959; stroke:none;" d="M646 438L647 439L646 438M771 438L772 439L771 438z"/>
<path style="fill:#a6a6a6; stroke:none;" d="M822 438L823 439L822 438z"/>
<path style="fill:#595959; stroke:none;" d="M446.667 439.333L447.333 439.667L446.667 439.333z"/>
<path style="fill:#a6a6a6; stroke:none;" d="M448.667 439.333L449.333 439.667L448.667 439.333M517 439L518 440L517 439z"/>
<path style="fill:#595959; stroke:none;" d="M518.667 439.333L519.333 439.667L518.667 439.333M597 439L598 440L597 439M645 439L646 440L645 439M772 439L773 440L772 439M823 439L825 441L823 439M450.667 440.333L451.333 440.667L450.667 440.333z"/>
<path style="fill:#a6a6a6; stroke:none;" d="M452.667 440.333L453.333 440.667L452.667 440.333M513.667 440.333L514.333 440.667L513.667 440.333z"/>
<path style="fill:#595959; stroke:none;" d="M515.667 440.333L516.333 440.667L515.667 440.333M596 440L597 441L596 440z"/>
<path style="fill:#a6a6a6; stroke:none;" d="M644 440L643 442L644 440M773 440L775 442L773 440M823 440L824 441L823 440z"/>
<path style="fill:#595959; stroke:none;" d="M454 441L454 442L457 442L454 441z"/>
<path style="fill:#a6a6a6; stroke:none;" d="M457.667 441.333L458.333 441.667L457.667 441.333M507 441L507 442L510 442L507 441z"/>
<path style="fill:#595959; stroke:none;" d="M510.667 441.333L511.333 441.667L510.667 441.333z"/>
<path style="fill:#a6a6a6; stroke:none;" d="M596 441L597 442L596 441z"/>
<path style="fill:#595959; stroke:none;" d="M644 441L645 442L644 441M773 441L774 442L773 441z"/>
<path style="fill:#a6a6a6; stroke:none;" d="M824 441L825 442L824 441z"/>
<path style="fill:#595959; stroke:none;" d="M459 442L459 443L462 443L459 442z"/>
<path style="fill:#a6a6a6; stroke:none;" d="M462 442L462 443L466 443L462 442M501 442L501 443L504 443L501 442z"/>
<path style="fill:#595959; stroke:none;" d="M504 442L504 443L508 443L504 442z"/>
<path style="fill:#a6a6a6; stroke:none;" d="M595.333 442.667L595.667 443.333L595.333 442.667z"/>
<path style="fill:#595959; stroke:none;" d="M643 442L644 443L643 442M774 442L775 443L774 442M825 442C825 445.551 817.025 444 814 444L776 444L776 445L814 445C816.588 445 827.658 446.316 825 442M466 443L466 444L471 444L466 443z"/>
<path style="fill:#a6a6a6; stroke:none;" d="M471 443L471 444L496 444L471 443z"/>
<path style="fill:#595959; stroke:none;" d="M496 443L496 444L500 444L496 443M594 443L595 444L594 443z"/>
<path style="fill:#a6a6a6; stroke:none;" d="M642 443L643 444L642 443M775 443L776 444L775 443M825 443L826 444L825 443z"/>
<path style="fill:#595959; stroke:none;" d="M479 444L479 445L489 445L479 444M595 444L595 445L642 445C629.823 439.891 608.265 444 595 444z"/>
</svg>