<?xml version="1.0" encoding="UTF-8"?>
<!DOCTYPE svg PUBLIC "-//W3C//DTD SVG 1.1//EN" "http://www.w3.org/Graphics/SVG/1.1/DTD/svg11.dtd">
<svg xmlns="http://www.w3.org/2000/svg" version="1.1" width="512px" height="512px" style="shape-rendering:geometricPrecision; text-rendering:geometricPrecision; image-rendering:optimizeQuality; fill-rule:evenodd; clip-rule:evenodd" xmlns:xlink="http://www.w3.org/1999/xlink">
<g><path style="opacity:0.996" fill="#cc0000" d="M 233.5,-0.5 C 248.167,-0.5 262.833,-0.5 277.5,-0.5C 373.926,11.1207 444.093,60.1207 488,146.5C 500.701,174.312 508.534,203.312 511.5,233.5C 511.5,248.167 511.5,262.833 511.5,277.5C 499.879,373.926 450.879,444.093 364.5,488C 336.688,500.701 307.688,508.534 277.5,511.5C 262.833,511.5 248.167,511.5 233.5,511.5C 136.34,499.484 65.8403,449.817 22,362.5C 9.93784,335.244 2.43784,306.911 -0.5,277.5C -0.5,262.833 -0.5,248.167 -0.5,233.5C 8.60893,152.613 46.2756,88.7801 112.5,42C 149.423,17.9708 189.757,3.80413 233.5,-0.5 Z"/></g>
<g><path style="opacity:1" fill="#fef9f9" d="M 322.5,102.5 C 318.427,104.135 314.094,105.135 309.5,105.5C 305.833,105.5 302.167,105.5 298.5,105.5C 298.093,99.8005 297.427,94.1338 296.5,88.5C 304.826,88.9756 313.16,89.309 321.5,89.5C 322.08,93.81 322.414,98.1434 322.5,102.5 Z"/></g>
<g><path style="opacity:1" fill="#fef9f9" d="M 243.5,98.5 C 244.873,98.3433 246.207,98.51 247.5,99C 251.513,103.678 255.513,108.345 259.5,113C 254.098,117.548 248.098,121.381 241.5,124.5C 236.49,119.488 231.823,114.155 227.5,108.5C 232.861,105.156 238.195,101.822 243.5,98.5 Z"/></g>
<g><path style="opacity:1" fill="#e57c7b" d="M 322.5,102.5 C 323.404,103.209 323.737,104.209 323.5,105.5C 318.833,105.5 314.167,105.5 309.5,105.5C 314.094,105.135 318.427,104.135 322.5,102.5 Z"/></g>
<g><path style="opacity:1" fill="#fefefe" d="M 308.5,106.5 C 349.978,106.246 385.644,120.412 415.5,149C 413.575,152.718 411.075,155.884 408,158.5C 386.927,141.884 363.761,138.384 338.5,148C 294.725,167.117 268.892,200.284 261,247.5C 256.475,301.163 264.975,352.663 286.5,402C 234.168,402.5 181.834,402.667 129.5,402.5C 128.948,347.812 139.781,295.479 162,245.5C 171.808,225.218 182.141,205.218 193,185.5C 212.48,153.014 239.646,129.514 274.5,115C 285.728,111.194 297.061,108.361 308.5,106.5 Z"/></g>
<g><path style="opacity:1" fill="#fdf6f6" d="M 378.5,107.5 C 384.623,111.783 390.623,116.283 396.5,121C 395.695,122.972 394.361,124.472 392.5,125.5C 387.314,123.075 382.314,120.409 377.5,117.5C 377.187,113.958 377.521,110.625 378.5,107.5 Z"/></g>
<g><path style="opacity:1" fill="#e57a77" d="M 378.5,107.5 C 377.521,110.625 377.187,113.958 377.5,117.5C 376.192,113.981 376.192,110.315 377.5,106.5C 378.107,106.624 378.44,106.957 378.5,107.5 Z"/></g>
<g><path style="opacity:1" fill="#fefafa" d="M 180.5,148.5 C 187.525,152.677 194.192,157.344 200.5,162.5C 195.52,168.647 190.354,174.647 185,180.5C 178.08,175.957 171.247,171.29 164.5,166.5C 169.484,160.183 174.818,154.183 180.5,148.5 Z"/></g>
<g><path style="opacity:1" fill="#eca09f" d="M 375.5,152.5 C 374.527,154.948 374.194,157.615 374.5,160.5C 373.197,157.645 373.197,154.645 374.5,151.5C 375.107,151.624 375.44,151.957 375.5,152.5 Z"/></g>
<g><path style="opacity:1" fill="#fdf2f1" d="M 375.5,152.5 C 379.796,153.43 384.13,154.263 388.5,155C 389.435,157.381 389.768,159.881 389.5,162.5C 384.32,162.153 379.32,161.487 374.5,160.5C 374.194,157.615 374.527,154.948 375.5,152.5 Z"/></g>
<g><path style="opacity:1" fill="#fdf5f4" d="M 336.5,155.5 C 337.833,155.5 339.167,155.5 340.5,155.5C 341.221,158.817 341.388,162.151 341,165.5C 337.667,168.167 334.333,170.833 331,173.5C 328.373,169.081 325.873,164.581 323.5,160C 327.846,158.336 332.18,156.836 336.5,155.5 Z"/></g>
<g><path style="opacity:1" fill="#fef7f7" d="M 298.5,177.5 C 302.854,183.024 306.854,188.857 310.5,195C 308.723,199.387 306.557,203.554 304,207.5C 298.313,201.314 292.813,194.981 287.5,188.5C 291.494,185.173 295.161,181.506 298.5,177.5 Z"/></g>
<g><path style="opacity:1" fill="#fefafa" d="M 127.5,226.5 C 136.557,229.297 145.557,232.297 154.5,235.5C 152.977,243.071 150.643,250.404 147.5,257.5C 145.926,258.631 144.259,258.798 142.5,258C 134.526,255.624 126.859,252.791 119.5,249.5C 122.572,241.948 125.239,234.282 127.5,226.5 Z"/></g>
<g><path style="opacity:1" fill="#fef8f7" d="M 275.5,226.5 C 281.122,230.282 286.622,234.282 292,238.5C 291.527,245.276 290.194,251.943 288,258.5C 281.667,253.167 275.333,247.833 269,242.5C 270.286,236.912 272.452,231.578 275.5,226.5 Z"/></g>
<g><path style="opacity:1" fill="#fef9f9" d="M 267.5,280.5 C 275.09,283.628 282.423,287.295 289.5,291.5C 290.833,297.833 290.833,304.167 289.5,310.5C 282.044,307.021 274.544,303.688 267,300.5C 266.952,293.844 267.119,287.178 267.5,280.5 Z"/></g>
<g><path style="opacity:1" fill="#fefbfb" d="M 99.5,324.5 C 109.523,324.782 119.523,325.449 129.5,326.5C 127.617,336.465 125.95,346.465 124.5,356.5C 114.83,355.56 105.163,354.56 95.5,353.5C 96.5889,343.787 97.9223,334.12 99.5,324.5 Z"/></g>
<g><path style="opacity:1" fill="#fef9f9" d="M 274.5,352.5 C 283.173,352.334 291.84,352.5 300.5,353C 303.975,360.421 307.641,367.754 311.5,375C 301.193,374.696 290.86,374.529 280.5,374.5C 278.809,367.068 276.809,359.735 274.5,352.5 Z"/></g>
</svg>
