<svg width="45" height="45" viewBox="0 0 45 45" fill="none" xmlns="http://www.w3.org/2000/svg">
<g clip-path="url(#clip0_2710_38245)">
<path d="M31.995 1.63256V10.074C31.9949 10.293 31.9383 10.5081 31.8307 10.6988C31.7232 10.8895 31.5683 11.0493 31.3811 11.1627L31.3285 11.1934L29.3551 12.3302L17.8681 18.9365L16.4737 19.7379C16.4501 19.7483 16.4277 19.7612 16.4068 19.7763C16.32 19.8345 16.2488 19.9132 16.1996 20.0055C16.1504 20.0977 16.1247 20.2007 16.1247 20.3052C16.1247 20.4098 16.1504 20.5127 16.1996 20.605C16.2488 20.6972 16.32 20.776 16.4068 20.8342L16.4594 20.8649L18.0326 21.777L23.4044 24.8686L23.4998 24.9245C23.5839 24.9827 23.6527 25.0604 23.7002 25.151C23.7477 25.2416 23.7725 25.3424 23.7725 25.4447C23.7725 25.547 23.7477 25.6477 23.7002 25.7383C23.6527 25.8289 23.5839 25.9067 23.4998 25.9649L23.4066 26.0175L13.5915 31.6722L13.5367 31.704C13.3509 31.8059 13.1423 31.8591 12.9304 31.8586C12.7407 31.8579 12.5535 31.8152 12.3823 31.7336L12.3275 31.7051L12.2441 31.6557L6.55218 28.3833L4.66765 27.2991C4.6501 27.2903 4.63256 27.2793 4.61393 27.2684C4.43191 27.1573 4.28104 27.0019 4.17541 26.8167C4.06069 26.6248 4.00008 26.4055 4 26.1819V17.3732C3.99971 17.1573 4.05467 16.945 4.15963 16.7563C4.2646 16.5677 4.41608 16.4091 4.59968 16.2955C4.60388 16.2915 4.60869 16.2882 4.61393 16.2857C4.63465 16.2725 4.65626 16.2608 4.67861 16.2506L4.68738 16.244L6.55108 15.1718L12.8405 11.554L20.4203 7.19408L31.0018 1.10963C31.0184 1.09795 31.036 1.08768 31.0544 1.07893C31.1472 1.02713 31.2518 0.99996 31.3581 1C31.4417 0.999857 31.5246 1.01619 31.6019 1.04807C31.6792 1.07994 31.7495 1.12674 31.8088 1.18578C31.868 1.24483 31.9151 1.31496 31.9472 1.39219C31.9794 1.46941 31.996 1.55221 31.9961 1.63585L31.995 1.63256Z" fill="white"/>
<path d="M40.8358 19.6698V28.4785C40.8356 28.6971 40.779 28.912 40.6714 29.1023C40.5639 29.2926 40.4091 29.452 40.2219 29.565L40.1682 29.5957L38.2837 30.681L35.9025 32.0514L31.9975 34.2977L24.4155 38.6576L13.8363 44.7421C13.8193 44.7534 13.8018 44.7636 13.7836 44.7728C13.6904 44.8243 13.5854 44.8511 13.4789 44.8506C13.3952 44.8508 13.3124 44.8344 13.235 44.8026C13.1577 44.7707 13.0874 44.7239 13.0282 44.6648C12.9689 44.6058 12.9219 44.5357 12.8897 44.4584C12.8576 44.3812 12.841 44.2984 12.8408 44.2148V35.7733C12.8406 35.5546 12.8971 35.3396 13.0047 35.1492C13.1122 34.9588 13.2673 34.7995 13.4547 34.6869C13.48 34.6704 13.5074 34.6562 13.5326 34.643L15.484 33.5193L26.9677 26.913L28.3435 26.1215L28.4323 26.0711L28.4411 26.0656C28.5253 26.0071 28.5941 25.929 28.6417 25.8382C28.6892 25.7473 28.714 25.6463 28.7141 25.5438C28.7132 25.4395 28.6871 25.337 28.6381 25.245C28.589 25.153 28.5184 25.0742 28.4323 25.0153C28.412 25.0018 28.3908 24.9897 28.3688 24.9792L26.8033 24.0736L21.4314 20.981L21.3283 20.9207C21.2462 20.8623 21.1792 20.7851 21.133 20.6956C21.0868 20.606 21.0627 20.5067 21.0627 20.406C21.0627 20.3052 21.0868 20.2059 21.133 20.1163C21.1792 20.0268 21.2462 19.9496 21.3283 19.8913L21.438 19.8299C21.4431 19.8263 21.4486 19.8233 21.4544 19.8211L31.2465 14.1861L31.3233 14.1423C31.5058 14.0469 31.7088 13.9971 31.9147 13.9971C32.1207 13.9971 32.3236 14.0469 32.5062 14.1423L32.5895 14.1905L38.2968 17.4728L40.1814 18.5582C40.1996 18.5672 40.2172 18.5774 40.234 18.5889C40.4161 18.6993 40.567 18.8544 40.6725 19.0394C40.7862 19.232 40.8457 19.4517 40.8446 19.6753L40.8358 19.6698Z" fill="white"/>
</g>
<defs>
<clipPath id="clip0_2710_38245">
<rect width="45" height="45" fill="white"/>
</clipPath>
</defs>
</svg>